<svg width="80" height="81" viewBox="0 0 80 81" fill="none" xmlns="http://www.w3.org/2000/svg">
<path d="M29.9998 7.16666C21.2665 7.16666 14.1665 14.2667 14.1665 23C14.1665 31.5667 20.8665 38.5 29.5998 38.8C29.8665 38.7667 30.1332 38.7667 30.3332 38.8C30.3998 38.8 30.4332 38.8 30.4998 38.8C30.5332 38.8 30.5332 38.8 30.5665 38.8C39.0998 38.5 45.7998 31.5667 45.8332 23C45.8332 14.2667 38.7332 7.16666 29.9998 7.16666Z" fill="#474747"/>
<path d="M46.9332 47.6667C37.6332 41.4667 22.4665 41.4667 13.0999 47.6667C8.86654 50.5 6.5332 54.3333 6.5332 58.4333C6.5332 62.5333 8.86654 66.3333 13.0665 69.1333C17.7332 72.2667 23.8665 73.8333 29.9999 73.8333C36.1332 73.8333 42.2665 72.2667 46.9332 69.1333C51.1332 66.3 53.4665 62.5 53.4665 58.3667C53.4332 54.2667 51.1332 50.4667 46.9332 47.6667Z" fill="#474747"/>
<path d="M66.6332 24.9667C67.1665 31.4333 62.5665 37.1 56.1999 37.8667C56.1665 37.8667 56.1665 37.8667 56.1332 37.8667H56.0332C55.8332 37.8667 55.6332 37.8667 55.4665 37.9333C52.2332 38.1 49.2665 37.0667 47.0332 35.1667C50.4665 32.1 52.4332 27.5 52.0332 22.5C51.7999 19.8 50.8665 17.3333 49.4665 15.2333C50.7332 14.6 52.1999 14.2 53.6999 14.0667C60.2332 13.5 66.0665 18.3667 66.6332 24.9667Z" fill="#474747"/>
<path d="M73.3 55.8C73.0333 59.0333 70.9666 61.8333 67.5 63.7333C64.1666 65.5667 59.9666 66.4333 55.8 66.3333C58.2 64.1667 59.6 61.4667 59.8666 58.6C60.2 54.4667 58.2333 50.5 54.3 47.3333C52.0666 45.5667 49.4666 44.1667 46.6333 43.1333C54 41 63.2666 42.4333 68.9666 47.0333C72.0333 49.5 73.6 52.6 73.3 55.8Z" fill="#292D32"/>
</svg>
