<svg width="51" height="28" viewBox="0 0 51 28" fill="none" xmlns="http://www.w3.org/2000/svg">
<path d="M31.5 21.5L27.1 7.1H29.9L33.5 18.94L37.16 7.1H39.96L35.56 21.5H31.5Z" fill="black"/>
<path d="M16.4 21.5V7.1H25.8V9.64H19.12V12.72H24.6V15.26H19.12V18.96H25.8V21.5H16.4Z" fill="black"/>
<path d="M7.4 21.8C6.49333 21.8 5.63 21.64 4.81 21.32C3.99 20.9933 3.26333 20.5133 2.63 19.88C2.00333 19.2467 1.50667 18.4633 1.14 17.53C0.78 16.5967 0.6 15.52 0.6 14.3C0.6 12.7067 0.903333 11.3533 1.51 10.24C2.12333 9.12 2.94333 8.26667 3.97 7.68C5.00333 7.09333 6.14667 6.8 7.4 6.8C9.25333 6.8 10.71 7.23 11.77 8.09C12.83 8.95 13.54 10.1667 13.9 11.74L11.12 12.14C10.86 11.3 10.4333 10.63 9.84 10.13C9.25333 9.62333 8.5 9.36667 7.58 9.36C6.66667 9.34667 5.90667 9.54333 5.3 9.95C4.69333 10.3567 4.23667 10.9333 3.93 11.68C3.63 12.4267 3.48 13.3 3.48 14.3C3.48 15.3 3.63 16.1667 3.93 16.9C4.23667 17.6333 4.69333 18.2033 5.3 18.61C5.90667 19.0167 6.66667 19.2267 7.58 19.24C8.2 19.2533 8.76 19.1467 9.26 18.92C9.76667 18.6933 10.1933 18.3367 10.54 17.85C10.8867 17.3633 11.1333 16.74 11.28 15.98H9V13.88H14.18C14.1933 13.9667 14.2033 14.12 14.21 14.34C14.2167 14.56 14.22 14.6867 14.22 14.72C14.22 16.1 13.94 17.3233 13.38 18.39C12.82 19.4567 12.03 20.2933 11.01 20.9C9.99 21.5 8.78667 21.8 7.4 21.8Z" fill="black"/>
<mask id="path-4-outside-1_74_518" maskUnits="userSpaceOnUse" x="36" y="5.5" width="15" height="18" fill="black">
<rect fill="white" x="36" y="5.5" width="15" height="18"/>
<path d="M43.84 21.8C42.7733 21.8 41.81 21.6133 40.95 21.24C40.0967 20.86 39.3933 20.32 38.84 19.62C38.2933 18.9133 37.9467 18.0733 37.8 17.1L40.64 16.68C40.84 17.5067 41.2533 18.1433 41.88 18.59C42.5067 19.0367 43.22 19.26 44.02 19.26C44.4667 19.26 44.9 19.19 45.32 19.05C45.74 18.91 46.0833 18.7033 46.35 18.43C46.6233 18.1567 46.76 17.82 46.76 17.42C46.76 17.2733 46.7367 17.1333 46.69 17C46.65 16.86 46.58 16.73 46.48 16.61C46.38 16.49 46.2367 16.3767 46.05 16.27C45.87 16.1633 45.64 16.0667 45.36 15.98L41.62 14.88C41.34 14.8 41.0133 14.6867 40.64 14.54C40.2733 14.3933 39.9167 14.1833 39.57 13.91C39.2233 13.6367 38.9333 13.2767 38.7 12.83C38.4733 12.3767 38.36 11.8067 38.36 11.12C38.36 10.1533 38.6033 9.35 39.09 8.71C39.5767 8.07 40.2267 7.59333 41.04 7.28C41.8533 6.96667 42.7533 6.81333 43.74 6.82C44.7333 6.83333 45.62 7.00333 46.4 7.33C47.18 7.65667 47.8333 8.13333 48.36 8.76C48.8867 9.38 49.2667 10.14 49.5 11.04L46.56 11.54C46.4533 11.0733 46.2567 10.68 45.97 10.36C45.6833 10.04 45.34 9.79667 44.94 9.63C44.5467 9.46333 44.1333 9.37333 43.7 9.36C43.2733 9.34667 42.87 9.40667 42.49 9.54C42.1167 9.66667 41.81 9.85333 41.57 10.1C41.3367 10.3467 41.22 10.64 41.22 10.98C41.22 11.2933 41.3167 11.55 41.51 11.75C41.7033 11.9433 41.9467 12.1 42.24 12.22C42.5333 12.34 42.8333 12.44 43.14 12.52L45.64 13.2C46.0133 13.3 46.4267 13.4333 46.88 13.6C47.3333 13.76 47.7667 13.9867 48.18 14.28C48.6 14.5667 48.9433 14.9467 49.21 15.42C49.4833 15.8933 49.62 16.4933 49.62 17.22C49.62 17.9933 49.4567 18.67 49.13 19.25C48.81 19.8233 48.3767 20.3 47.83 20.68C47.2833 21.0533 46.6633 21.3333 45.97 21.52C45.2833 21.7067 44.5733 21.8 43.84 21.8Z"/>
</mask>
<path d="M43.84 21.8C42.7733 21.8 41.81 21.6133 40.95 21.24C40.0967 20.86 39.3933 20.32 38.84 19.62C38.2933 18.9133 37.9467 18.0733 37.8 17.1L40.64 16.68C40.84 17.5067 41.2533 18.1433 41.88 18.59C42.5067 19.0367 43.22 19.26 44.02 19.26C44.4667 19.26 44.9 19.19 45.32 19.05C45.74 18.91 46.0833 18.7033 46.35 18.43C46.6233 18.1567 46.76 17.82 46.76 17.42C46.76 17.2733 46.7367 17.1333 46.69 17C46.65 16.86 46.58 16.73 46.48 16.61C46.38 16.49 46.2367 16.3767 46.05 16.27C45.87 16.1633 45.64 16.0667 45.36 15.98L41.62 14.88C41.34 14.8 41.0133 14.6867 40.64 14.54C40.2733 14.3933 39.9167 14.1833 39.57 13.91C39.2233 13.6367 38.9333 13.2767 38.7 12.83C38.4733 12.3767 38.36 11.8067 38.36 11.12C38.36 10.1533 38.6033 9.35 39.09 8.71C39.5767 8.07 40.2267 7.59333 41.04 7.28C41.8533 6.96667 42.7533 6.81333 43.74 6.82C44.7333 6.83333 45.62 7.00333 46.4 7.33C47.18 7.65667 47.8333 8.13333 48.36 8.76C48.8867 9.38 49.2667 10.14 49.5 11.04L46.56 11.54C46.4533 11.0733 46.2567 10.68 45.97 10.36C45.6833 10.04 45.34 9.79667 44.94 9.63C44.5467 9.46333 44.1333 9.37333 43.7 9.36C43.2733 9.34667 42.87 9.40667 42.49 9.54C42.1167 9.66667 41.81 9.85333 41.57 10.1C41.3367 10.3467 41.22 10.64 41.22 10.98C41.22 11.2933 41.3167 11.55 41.51 11.75C41.7033 11.9433 41.9467 12.1 42.24 12.22C42.5333 12.34 42.8333 12.44 43.14 12.52L45.64 13.2C46.0133 13.3 46.4267 13.4333 46.88 13.6C47.3333 13.76 47.7667 13.9867 48.18 14.28C48.6 14.5667 48.9433 14.9467 49.21 15.42C49.4833 15.8933 49.62 16.4933 49.62 17.22C49.62 17.9933 49.4567 18.67 49.13 19.25C48.81 19.8233 48.3767 20.3 47.83 20.68C47.2833 21.0533 46.6633 21.3333 45.97 21.52C45.2833 21.7067 44.5733 21.8 43.84 21.8Z" fill="#9C0D38"/>
<path d="M40.95 21.24L40.5432 22.1536L40.5518 22.1573L40.95 21.24ZM38.84 19.62L38.049 20.2319L38.0555 20.2401L38.84 19.62ZM37.8 17.1L37.6537 16.1108L36.6618 16.2575L36.8112 17.249L37.8 17.1ZM40.64 16.68L41.612 16.4448L41.3972 15.5571L40.4937 15.6908L40.64 16.68ZM41.88 18.59L42.4604 17.7757V17.7757L41.88 18.59ZM45.32 19.05L45.0038 18.1013L45.32 19.05ZM46.35 18.43L45.6428 17.7228L45.6342 17.7317L46.35 18.43ZM46.69 17L45.7285 17.2747L45.7365 17.3028L45.7461 17.3304L46.69 17ZM46.48 16.61L47.2482 15.9698L47.2482 15.9698L46.48 16.61ZM46.05 16.27L45.5402 17.1303L45.547 17.1343L45.5539 17.1382L46.05 16.27ZM45.36 15.98L45.6557 15.0246L45.6422 15.0206L45.36 15.98ZM41.62 14.88L41.9022 13.9206L41.8947 13.9185L41.62 14.88ZM40.64 14.54L40.2686 15.4685L40.2743 15.4708L40.64 14.54ZM39.57 13.91L40.1892 13.1247H40.1892L39.57 13.91ZM38.7 12.83L37.8056 13.2772L37.8095 13.2852L37.8137 13.293L38.7 12.83ZM39.09 8.71L39.886 9.31529L39.886 9.31529L39.09 8.71ZM41.04 7.28L41.3995 8.21315L41.3995 8.21315L41.04 7.28ZM43.74 6.82L43.7534 5.82007L43.7468 5.82002L43.74 6.82ZM46.4 7.33L46.7863 6.40762L46.4 7.33ZM48.36 8.76L47.5944 9.40339L47.5979 9.40741L48.36 8.76ZM49.5 11.04L49.6677 12.0258L50.7413 11.8433L50.468 10.789L49.5 11.04ZM46.56 11.54L45.5851 11.7628L45.7958 12.6843L46.7277 12.5258L46.56 11.54ZM45.97 10.36L45.2252 11.0272L45.2252 11.0272L45.97 10.36ZM44.94 9.63L44.5498 10.5508L44.5554 10.5531L44.94 9.63ZM43.7 9.36L43.6688 10.3595L43.6692 10.3595L43.7 9.36ZM42.49 9.54L42.8113 10.487L42.8211 10.4836L42.49 9.54ZM41.57 10.1L40.8532 9.40257L40.8435 9.4128L41.57 10.1ZM41.51 11.75L40.791 12.445L40.7969 12.4511L40.8029 12.4571L41.51 11.75ZM42.24 12.22L42.6186 11.2945H42.6186L42.24 12.22ZM43.14 12.52L43.4025 11.555L43.3924 11.5524L43.14 12.52ZM45.64 13.2L45.3775 14.1649L45.3813 14.1659L45.64 13.2ZM46.88 13.6L46.5349 14.5387L46.5472 14.543L46.88 13.6ZM48.18 14.28L47.6013 15.0955L47.6087 15.1008L47.6163 15.1059L48.18 14.28ZM49.21 15.42L48.3387 15.9109L48.344 15.9201L49.21 15.42ZM49.13 19.25L48.2587 18.7593L48.2568 18.7626L49.13 19.25ZM47.83 20.68L48.394 21.5058L48.4008 21.5011L47.83 20.68ZM45.97 21.52L45.71 20.5544L45.7077 20.555L45.97 21.52ZM43.84 20.8C42.8915 20.8 42.0664 20.6345 41.3482 20.3227L40.5518 22.1573C41.5536 22.5922 42.6551 22.8 43.84 22.8V20.8ZM41.3568 20.3265C40.6441 20.0091 40.0728 19.567 39.6245 18.9999L38.0555 20.2401C38.7139 21.073 39.5492 21.7109 40.5432 22.1535L41.3568 20.3265ZM39.631 19.0081C39.199 18.4497 38.9127 17.7733 38.7888 16.951L36.8112 17.249C36.9806 18.3734 37.3877 19.3769 38.049 20.2319L39.631 19.0081ZM37.9463 18.0892L40.7863 17.6692L40.4937 15.6908L37.6537 16.1108L37.9463 18.0892ZM39.668 16.9152C39.9182 17.9493 40.4559 18.803 41.2996 19.4043L42.4604 17.7757C42.0508 17.4837 41.7618 17.0641 41.612 16.4448L39.668 16.9152ZM41.2996 19.4043C42.1027 19.9767 43.0207 20.26 44.02 20.26V18.26C43.4193 18.26 42.9106 18.0966 42.4604 17.7757L41.2996 19.4043ZM44.02 20.26C44.5732 20.26 45.1133 20.173 45.6362 19.9987L45.0038 18.1013C44.6867 18.207 44.3602 18.26 44.02 18.26V20.26ZM45.6362 19.9987C46.1833 19.8163 46.6713 19.5327 47.0658 19.1283L45.6342 17.7317C45.4954 17.874 45.2967 18.0037 45.0038 18.1013L45.6362 19.9987ZM47.0571 19.1371C47.5251 18.6691 47.76 18.0749 47.76 17.42H45.76C45.76 17.5651 45.7215 17.6443 45.6429 17.7229L47.0571 19.1371ZM47.76 17.42C47.76 17.1652 47.7191 16.9132 47.6339 16.6696L45.7461 17.3304C45.7542 17.3535 45.76 17.3815 45.76 17.42H47.76ZM47.6515 16.7253C47.5705 16.4418 47.4308 16.1889 47.2482 15.9698L45.7118 17.2502C45.7214 17.2617 45.7256 17.2689 45.727 17.2716C45.7278 17.2731 45.7282 17.2739 45.7283 17.2742C45.7284 17.2744 45.7284 17.2746 45.7285 17.2747L47.6515 16.7253ZM47.2482 15.9698C47.049 15.7308 46.8001 15.5469 46.5461 15.4018L45.5539 17.1382C45.6112 17.171 45.6509 17.1986 45.6773 17.2194C45.7036 17.2403 45.7127 17.2513 45.7118 17.2502L47.2482 15.9698ZM46.5598 15.4097C46.2916 15.2507 45.9832 15.1261 45.6557 15.0247L45.0643 16.9353C45.2968 17.0073 45.4484 17.0759 45.5402 17.1303L46.5598 15.4097ZM45.6422 15.0206L41.9022 13.9206L41.3378 15.8394L45.0778 16.9394L45.6422 15.0206ZM41.8947 13.9185C41.6545 13.8498 41.3594 13.7482 41.0057 13.6092L40.2743 15.4708C40.6673 15.6251 41.0255 15.7502 41.3453 15.8415L41.8947 13.9185ZM41.0114 13.6115C40.7435 13.5044 40.4693 13.3456 40.1892 13.1247L38.9508 14.6953C39.3641 15.0211 39.8031 15.2823 40.2686 15.4685L41.0114 13.6115ZM40.1892 13.1247C39.9679 12.9503 39.7636 12.7062 39.5863 12.367L37.8137 13.293C38.1031 13.8471 38.4787 14.323 38.9508 14.6953L40.1892 13.1247ZM39.5944 12.3828C39.4573 12.1086 39.36 11.7038 39.36 11.12H37.36C37.36 11.9095 37.4893 12.6447 37.8056 13.2772L39.5944 12.3828ZM39.36 11.12C39.36 10.3264 39.5568 9.74819 39.886 9.31529L38.294 8.10471C37.6498 8.95181 37.36 9.98023 37.36 11.12H39.36ZM39.886 9.31529C40.251 8.83532 40.7442 8.46561 41.3995 8.21315L40.6805 6.34685C39.7092 6.72105 38.9024 7.30468 38.294 8.10471L39.886 9.31529ZM41.3995 8.21315C42.0816 7.95037 42.8554 7.81404 43.7332 7.81998L43.7468 5.82002C42.6513 5.81262 41.6251 5.98297 40.6805 6.34685L41.3995 8.21315ZM43.7266 7.81991C44.6138 7.83182 45.3706 7.98305 46.0137 8.25238L46.7863 6.40762C45.8694 6.02362 44.8528 5.83485 43.7534 5.82009L43.7266 7.81991ZM46.0137 8.25238C46.6519 8.51966 47.1736 8.90267 47.5945 9.40338L49.1255 8.11662C48.493 7.36399 47.7081 6.79368 46.7863 6.40762L46.0137 8.25238ZM47.5979 9.40741C48.0138 9.89707 48.3311 10.516 48.532 11.291L50.468 10.789C50.2022 9.76396 49.7595 8.86292 49.1221 8.11259L47.5979 9.40741ZM49.3323 10.0542L46.3923 10.5542L46.7277 12.5258L49.6677 12.0258L49.3323 10.0542ZM47.5349 11.3172C47.3948 10.7045 47.1271 10.1529 46.7148 9.69275L45.2252 11.0272C45.3862 11.2071 45.5118 11.4421 45.5851 11.7628L47.5349 11.3172ZM46.7148 9.69275C46.3278 9.2607 45.861 8.93043 45.3246 8.70692L44.5554 10.5531C44.819 10.6629 45.0389 10.8193 45.2252 11.0272L46.7148 9.69275ZM45.3301 8.70925C44.8212 8.49359 44.2858 8.37755 43.7308 8.36047L43.6692 10.3595C43.9808 10.3691 44.2721 10.4331 44.5499 10.5508L45.3301 8.70925ZM43.7312 8.36049C43.1888 8.34354 42.6621 8.41986 42.1589 8.5964L42.8211 10.4836C43.0779 10.3935 43.3578 10.3498 43.6688 10.3595L43.7312 8.36049ZM42.1687 8.59302C41.6676 8.76305 41.2186 9.0272 40.8533 9.40264L42.2867 10.7974C42.4014 10.6795 42.5658 10.5703 42.8113 10.487L42.1687 8.59302ZM40.8435 9.4128C40.4343 9.84544 40.22 10.3848 40.22 10.98H42.22C42.22 10.8952 42.2391 10.8479 42.2965 10.7872L40.8435 9.4128ZM40.22 10.98C40.22 11.5171 40.3941 12.0344 40.791 12.445L42.229 11.055C42.2263 11.0522 42.2263 11.0517 42.2273 11.0533C42.2283 11.0549 42.2287 11.0559 42.2283 11.055C42.228 11.0542 42.22 11.0332 42.22 10.98H40.22ZM40.8029 12.4571C41.1039 12.7581 41.4645 12.9832 41.8614 13.1455L42.6186 11.2945C42.4289 11.2168 42.3028 11.1286 42.2171 11.0429L40.8029 12.4571ZM41.8614 13.1455C42.1958 13.2824 42.538 13.3964 42.8876 13.4876L43.3924 11.5524C43.1287 11.4836 42.8709 11.3976 42.6186 11.2945L41.8614 13.1455ZM42.8775 13.4849L45.3775 14.1649L45.9025 12.2351L43.4025 11.5551L42.8775 13.4849ZM45.3813 14.1659C45.7193 14.2565 46.1033 14.3799 46.5349 14.5386L47.2251 12.6614C46.75 12.4868 46.3074 12.3435 45.8987 12.2341L45.3813 14.1659ZM46.5472 14.543C46.9084 14.6705 47.2595 14.853 47.6013 15.0955L48.7587 13.4645C48.2739 13.1204 47.7583 12.8495 47.2128 12.657L46.5472 14.543ZM47.6163 15.1059C47.9008 15.3002 48.1422 15.562 48.3388 15.9108L50.0812 14.9292C49.7445 14.3313 49.2992 13.8332 48.7437 13.454L47.6163 15.1059ZM48.344 15.9201C48.5053 16.1993 48.62 16.6129 48.62 17.22H50.62C50.62 16.3737 50.4614 15.5874 50.076 14.9199L48.344 15.9201ZM48.62 17.22C48.62 17.8495 48.4882 18.3517 48.2587 18.7593L50.0013 19.7407C50.4251 18.9883 50.62 18.1372 50.62 17.22H48.62ZM48.2568 18.7626C48.012 19.2013 47.6828 19.5644 47.2592 19.8589L48.4008 21.5011C49.0705 21.0356 49.608 20.4454 50.0032 19.7374L48.2568 18.7626ZM47.266 19.8542C46.8197 20.159 46.3041 20.3944 45.71 20.5544L46.23 22.4856C47.0226 22.2722 47.747 21.9476 48.394 21.5058L47.266 19.8542ZM45.7077 20.555C45.1091 20.7177 44.4874 20.8 43.84 20.8V22.8C44.6592 22.8 45.4576 22.6956 46.2323 22.485L45.7077 20.555Z" fill="white" mask="url(#path-4-outside-1_74_518)"/>
</svg>
