<svg width="80" height="81" viewBox="0 0 80 81" fill="none" xmlns="http://www.w3.org/2000/svg">
<path d="M60.0665 41.6L55.9998 37.5333C55.0332 36.7 54.4665 35.4667 54.4332 34.1C54.3665 32.6 54.9665 31.1 56.0665 30L60.0665 26C63.5332 22.5333 64.8332 19.2 63.7332 16.5667C62.6665 13.9667 59.3665 12.5333 54.4998 12.5333H19.6665V9.66666C19.6665 8.3 18.5332 7.16666 17.1665 7.16666C15.7998 7.16666 14.6665 8.3 14.6665 9.66666V71.3333C14.6665 72.7 15.7998 73.8333 17.1665 73.8333C18.5332 73.8333 19.6665 72.7 19.6665 71.3333V55.0667H54.4998C59.2998 55.0667 62.5332 53.6 63.6332 50.9667C64.7332 48.3333 63.4665 45.0333 60.0665 41.6Z" fill="#292D32"/>
</svg>
