<svg width="656" height="462" viewBox="0 0 656 462" fill="none" xmlns="http://www.w3.org/2000/svg">
<path d="M510.963 126.752C510.963 126.752 564.464 72.6769 580.293 84.3885C596.122 96.1 510.963 126.752 510.963 126.752Z" fill="#9C0D38"/>
<path d="M507.289 136.953C507.289 136.953 608.399 87.9492 633.388 111.474C658.38 134.998 605.905 133.598 586.426 131.475C566.946 129.35 507.289 136.956 507.289 136.956V136.953Z" fill="#9C0D38"/>
<path d="M502.644 125.853C502.644 125.853 503.047 123.258 503.589 119.462C504.648 112.057 506.234 100.073 506.387 93.8529C506.619 84.4436 513.97 77.5454 522.553 86.8561C531.136 96.1668 505.752 123.18 505.752 123.18L502.644 125.853Z" fill="#9C0D38"/>
<path d="M237.199 218.963C241.881 203.757 267.616 209.443 267.616 209.443C267.616 209.443 284.28 236.906 289.371 237.72C294.466 238.535 279.71 211.461 279.71 211.461C289.653 210.844 314.497 223.86 314.497 223.86C314.497 223.86 311.823 255.138 316.961 254.674C322.099 254.21 317.915 226.858 317.915 226.858C327.409 230.065 335.977 241.562 335.977 241.562C346.543 260.172 322.102 272.777 322.102 272.777C322.102 272.777 321.409 283.636 327.696 296.336C327.696 296.336 329.131 298.691 330.537 302.657L327.922 302.567C327.733 301.86 327.519 301.173 327.281 300.514C327.281 300.509 327.281 300.506 327.275 300.503C327.272 300.494 327.269 300.483 327.264 300.474C327.098 300.065 326.861 299.479 326.565 298.769C326.565 298.769 326.565 298.769 326.565 298.766C325.82 297.174 325.321 296 325.008 295.156C325.008 295.153 325.008 295.15 325.008 295.147C322.784 290.154 319.554 283.642 317.301 282.221C317.301 282.221 317.605 281.824 317.901 281.041C317.709 281.418 317.509 281.809 317.301 282.221C312.496 291.659 290.059 292.488 277.677 289.505C265.296 286.518 270.852 283.189 277.761 277.712C284.671 272.234 298.688 274.221 302.921 272.127C307.155 270.031 301.155 267.584 292.822 267.94C284.486 268.294 280.046 276.465 266.572 277.283C253.1 278.1 243.734 252.491 243.734 252.491C252.909 255.686 269.709 251.143 270.46 247.968C271.208 244.793 246.579 244.268 242.775 243.175C238.97 242.084 232.519 234.18 237.204 218.974L237.199 218.963Z" fill="#EFCFE3"/>
<path d="M629.85 238.068C625.109 225.806 604.229 231.982 604.229 231.982C604.229 231.982 592.083 255.579 587.933 256.548C583.781 257.513 594.376 234.342 594.376 234.342C586.144 234.409 566.421 246.573 566.421 246.573C566.421 246.573 570.437 272.2 566.175 272.116C561.912 272.032 563.777 249.243 563.777 249.243C556.136 252.436 549.74 262.408 549.74 262.408C542.108 278.359 562.982 287.333 562.982 287.333C562.982 287.333 564.183 296.243 559.735 307.076C559.735 307.076 558.688 309.1 557.757 312.452L559.906 312.226C560.022 311.632 560.155 311.055 560.315 310.495C560.315 310.492 560.315 310.489 560.317 310.483C560.317 310.475 560.323 310.466 560.323 310.46C560.436 310.112 560.599 309.616 560.802 309.013C561.324 307.659 561.669 306.662 561.877 305.945V305.94C563.423 301.698 565.708 296.139 567.482 294.837C567.482 294.837 567.21 294.527 566.92 293.898C567.1 294.196 567.288 294.509 567.482 294.837C571.988 302.338 590.529 301.724 600.561 298.546C610.594 295.368 605.821 292.944 599.81 288.829C593.796 284.714 582.36 287.165 578.75 285.68C575.14 284.198 579.942 281.835 586.832 281.644C593.721 281.452 597.856 287.93 609.008 287.826C620.16 287.721 626.397 266.07 626.397 266.07C619.02 269.233 604.911 266.461 604.107 263.887C603.307 261.312 623.578 259.453 626.649 258.334C629.723 257.214 634.582 250.325 629.842 238.065L629.85 238.068Z" fill="#EFCFE3"/>
<path d="M251.505 75.1388C263.637 51.5562 304.209 68.4087 304.209 68.4087C304.209 68.4087 323.526 118.349 331.648 121.176C339.77 124.003 323.471 75.2518 323.471 75.2518C339.973 77.1453 376.937 105.77 376.937 105.77C376.937 105.77 363.401 156.322 371.97 157.065C380.538 157.807 381.672 111.691 381.672 111.691C396.315 119.729 407.015 141.105 407.015 141.105C418.912 174.735 375.113 188.276 375.113 188.276C375.113 188.276 370.801 205.897 377.404 228.578C377.404 228.578 379.071 232.861 380.219 239.782L375.954 238.869C375.85 237.651 375.702 236.462 375.504 235.311C375.504 235.302 375.504 235.296 375.502 235.29C375.502 235.273 375.496 235.259 375.493 235.241C375.342 234.519 375.122 233.493 374.843 232.237C374.843 232.237 374.843 232.234 374.843 232.231C374.843 232.231 374.843 232.228 374.843 232.226C374.087 229.396 373.608 227.322 373.341 225.844C373.341 225.838 373.341 225.835 373.341 225.829C371.149 216.985 367.754 205.349 364.471 202.36C364.471 202.36 365.086 201.797 365.802 200.599C365.379 201.162 364.935 201.748 364.471 202.36C353.824 216.443 316.761 211.247 297.313 202.725C277.866 194.203 287.959 190.364 300.9 183.393C313.844 176.422 336.264 183.785 343.826 181.584C351.385 179.383 342.257 173.613 328.476 171.757C314.694 169.901 305.015 182.01 282.665 179.415C260.314 176.817 252.436 132.05 252.436 132.05C266.557 139.977 295.46 137.431 297.618 132.438C299.775 127.445 259.508 119.381 253.584 116.479C247.66 113.576 239.385 98.7185 251.517 75.133L251.505 75.1388Z" fill="#9C0D38"/>
<path d="M572.977 109.696H313.177V461.02H572.977V109.696Z" fill="#D8A1A1"/>
<path d="M562.62 116.537H321.287V452.24H562.62V116.537Z" fill="url(#paint0_linear_5_427)"/>
<path d="M400.986 139.409H337.763V202.629H400.986V139.409Z" fill="white"/>
<mask id="mask0_5_427" style="mask-type:luminance" maskUnits="userSpaceOnUse" x="337" y="139" width="64" height="64">
<path d="M400.986 139.409H337.763V202.629H400.986V139.409Z" fill="white"/>
</mask>
<g mask="url(#mask0_5_427)">
<path d="M390.368 263.773H340.381L376.215 183.419L388.614 211.198L393.143 238.21L390.368 263.773Z" fill="#88A0E2"/>
<path d="M351.333 185.495L359.342 183.416L367.119 180.659C367.119 180.659 371.633 182.816 374.849 183.416C378.352 184.069 390.043 203.598 390.043 204.415C390.043 205.233 380.901 263.373 380.901 263.373H336.768L351.336 185.495H351.333Z" fill="white"/>
<path d="M373.246 186.588C369.285 187.27 363.512 186.31 359.336 183.416C361.357 178.887 362.227 175.294 362.561 172.963C362.581 172.838 362.595 172.72 362.61 172.604C362.764 171.394 362.766 170.574 362.714 170.194L372.909 170.432C372.909 170.432 375.667 171.771 375.647 172.653C375.635 173.123 375.629 173.575 375.626 174.004C375.62 175.176 375.644 176.202 375.684 177.081C375.812 179.945 376.215 183.416 376.215 183.416C376.215 183.416 377.244 185.898 373.246 186.586V186.588Z" fill="#FFB27D"/>
<path d="M375.684 177.084C367.925 178.397 363.541 174.071 362.561 172.963C362.421 172.804 362.349 172.711 362.349 172.711C362.43 172.673 362.517 172.638 362.61 172.604C365.512 171.508 372.129 172.09 375.739 173.511C375.734 174.683 375.644 176.202 375.684 177.081V177.084Z" fill="#E2915A"/>
<path d="M359.705 169.466C362.332 176.553 371.738 174.68 375.739 173.511C376.867 173.184 377.563 172.914 377.563 172.914C378.799 172.343 379.17 170.18 379.042 167.448C378.793 162.043 376.609 154.423 375.371 152.593C373.51 149.839 370.419 147.044 361.308 151.022C352.197 155 356.335 160.39 359.705 169.469V169.466Z" fill="#FFB27D"/>
<path d="M374.513 146.313C371.283 143.932 368.403 143.413 366.307 143.384C360.102 143.303 355.285 146.44 355.256 146.458C348.077 151.219 347.077 157.514 352.798 166.062C358.849 175.103 362.537 173.114 362.537 173.114C362.537 173.114 361.83 172.888 361.383 169.823C361.357 169.649 361.34 169.501 361.325 169.376C361.256 168.744 360.928 168.156 360.389 167.819C359.275 167.123 358.353 164.601 359.038 163.737C359.861 162.693 361.415 163.519 361.995 164.261C362.476 164.772 363.199 164.856 363.767 164.343C365.921 162.394 363.822 159.608 365.808 157.337C367.794 155.067 379.715 156.087 380.495 149.386C380.495 149.386 377.514 148.525 374.516 146.316L374.513 146.313Z" fill="#462160"/>
<path d="M376.215 183.419C376.215 183.419 388.736 209.252 390.368 229.201C392 249.148 390.368 263.773 390.368 263.773C390.368 263.773 398.51 244.305 399.281 221.242C399.624 210.989 397.979 192.428 394.497 189.143C392.798 187.54 387.697 186.011 376.212 183.419H376.215Z" fill="white"/>
<path d="M362.274 217.583C362.233 220.534 362.12 223.617 361.908 226.806C361.172 238.013 359.261 250.554 355.271 263.376H314.296C314.296 263.376 319.374 251.033 325.506 237.619C326.582 235.27 327.687 232.887 328.803 230.532C333.335 220.981 338.047 211.885 341.492 207.292C350.634 195.102 359.342 183.419 359.342 183.419C359.342 183.419 362.546 197.401 362.271 217.583H362.274Z" fill="white"/>
<path d="M359.342 183.419C359.342 183.419 344.299 185.197 340.381 188.9C333.756 195.157 316.329 218.824 318.051 229.201C319.194 236.088 351.029 236.088 351.029 236.088C351.029 236.088 354.958 233.539 356.405 231.237C359.345 226.557 358.327 223.124 358.327 223.124L338.639 216.434C338.639 216.434 348.242 207.124 355.642 206.639C361.056 206.286 359.342 183.419 359.342 183.419Z" fill="white"/>
</g>
<path d="M496.938 178.24H417.714V179.829H496.938V178.24Z" fill="white"/>
<path d="M496.938 185.658H417.714V187.247H496.938V185.658Z" fill="white"/>
<path d="M496.938 193.165H417.714V194.754H496.938V193.165Z" fill="white"/>
<path d="M441.955 134.68H417.714V158.92H441.955V134.68Z" fill="white"/>
<path d="M496.938 153.617H466.213V156.412H496.938V153.617Z" fill="white"/>
<path d="M496.935 160.167H459.521V162.962H496.935V160.167Z" fill="white"/>
<path d="M400.986 319.017H337.763V382.24H400.986V319.017Z" fill="white"/>
<mask id="mask1_5_427" style="mask-type:luminance" maskUnits="userSpaceOnUse" x="337" y="319" width="64" height="64">
<path d="M400.986 319.017H337.763V382.24H400.986V319.017Z" fill="white"/>
</mask>
<g mask="url(#mask1_5_427)">
<path d="M350.507 365.104L358.516 363.027L366.292 360.27C366.292 360.27 370.804 362.427 374.023 363.027C377.526 363.68 389.217 383.209 389.217 384.027C389.217 384.844 389.544 443.382 389.544 443.382L335.942 442.984L350.51 365.107L350.507 365.104Z" fill="white"/>
<path d="M372.419 366.197C368.459 366.878 362.685 365.918 358.51 363.025C360.531 358.495 361.401 354.903 361.734 352.574C361.755 352.45 361.769 352.331 361.784 352.215C361.937 351.006 361.94 350.185 361.888 349.805L372.083 350.043C372.083 350.043 374.841 351.383 374.82 352.264C374.809 352.734 374.803 353.186 374.8 353.615C374.794 354.787 374.814 355.813 374.858 356.692C374.986 359.557 375.392 363.027 375.392 363.027C375.392 363.027 376.421 365.51 372.422 366.197H372.419Z" fill="#FFB27D"/>
<path d="M374.855 356.692C367.096 358.005 362.711 353.679 361.731 352.574C361.592 352.415 361.52 352.322 361.52 352.322C361.601 352.284 361.688 352.25 361.778 352.215C364.68 351.116 371.297 351.702 374.907 353.122C374.901 354.294 374.811 355.813 374.852 356.692H374.855Z" fill="#E2915A"/>
<path d="M358.875 349.075C361.502 356.161 370.909 354.288 374.91 353.12C376.038 352.792 376.734 352.522 376.734 352.522C377.969 351.951 378.34 349.788 378.213 347.056C377.963 341.652 375.78 334.031 374.542 332.202C372.68 329.447 369.589 326.652 360.479 330.63C351.368 334.608 355.506 339.999 358.875 349.077V349.075Z" fill="#FFB27D"/>
<path d="M373.684 325.921C370.453 323.54 367.574 323.021 365.478 322.992C359.27 322.911 354.456 326.049 354.427 326.066C347.248 330.827 346.247 337.122 351.968 345.67C358.02 354.711 361.708 352.722 361.708 352.722C361.708 352.722 361.001 352.496 360.554 349.428C360.528 349.254 360.511 349.109 360.496 348.982C360.426 348.35 360.099 347.761 359.56 347.425C358.446 346.729 357.524 344.206 358.208 343.342C359.032 342.298 360.586 343.125 361.166 343.867C361.647 344.377 362.369 344.461 362.938 343.948C365.092 342.002 362.993 339.216 364.979 336.945C366.968 334.675 378.885 335.696 379.665 328.995C379.665 328.995 376.685 328.133 373.686 325.924L373.684 325.921Z" fill="#FFA100"/>
<path d="M375.389 363.027C375.389 363.027 387.909 388.86 389.542 408.81C391.174 428.756 389.542 443.382 389.542 443.382C389.542 443.382 397.684 423.914 398.455 400.85C398.8 390.597 397.156 372.037 393.671 368.751C391.972 367.148 386.871 365.62 375.386 363.027H375.389Z" fill="white"/>
<path d="M358.513 363.027C358.513 363.027 343.469 364.805 339.552 368.508C332.926 374.765 315.5 398.432 317.222 408.81C317.605 411.112 326.527 418.143 331.43 419.164C332.674 428.93 329.595 443.385 329.595 443.385L354.442 442.987C358.431 430.165 360.342 417.627 361.079 406.417C361.288 403.228 361.404 400.143 361.444 397.191C361.717 377.009 358.516 363.027 358.516 363.027H358.513Z" fill="white"/>
<path d="M360.476 360.363C360.476 360.363 366.771 365.51 370.5 366.408C370.5 366.408 367.038 368.241 356.158 363.355C356.158 363.355 357.73 360.705 360.473 360.363H360.476Z" fill="#462160"/>
<path d="M375.069 359.832C375.069 359.832 375.783 361.978 376.888 363.367C376.888 363.367 375.919 366.797 370.503 366.406C370.503 366.406 375.284 362.972 375.072 359.832H375.069Z" fill="#462160"/>
<path d="M366.223 364.396L373.692 363.486C373.692 363.486 373.46 367.867 371.21 369.612C370.393 370.247 366.13 365.173 366.223 364.396Z" fill="#462160"/>
<path d="M369.552 367.067C369.552 367.067 371.268 398.322 370.456 412.144C370.007 419.782 368.899 430.792 369.076 431.856C369.253 432.92 374.327 437.893 374.327 437.893C374.327 437.893 379.318 433.245 379.436 431.232C379.555 429.22 380.976 399.977 372.121 366.739C371.816 365.599 369.552 367.064 369.552 367.064V367.067Z" fill="#462160"/>
<path d="M359.809 359.832C359.809 359.832 357.892 359.963 354.517 363.871C354.517 363.871 359.963 368.548 364.935 369.731C364.935 369.731 364.73 366.107 366.223 364.396L359.806 359.832H359.809Z" fill="#C5D7FF"/>
<path d="M375.07 359.832L372.454 363.709C372.454 363.709 375.119 365.707 376.006 368.105C376.006 368.105 377.836 365.121 377.676 363.549C377.676 363.549 376.444 360.308 375.07 359.832Z" fill="#C5D7FF"/>
</g>
<path d="M501.47 364.15H417.714V365.739H501.47V364.15Z" fill="white"/>
<path d="M501.47 371.567H417.714V373.156H501.47V371.567Z" fill="white"/>
<path d="M501.47 379.074H417.714V380.663H501.47V379.074Z" fill="white"/>
<path d="M441.955 320.592H417.714V344.832H441.955V320.592Z" fill="white"/>
<path d="M501.47 339.526H468.988V342.324H501.47V339.526Z" fill="white"/>
<path d="M501.473 346.076H461.916V348.874H501.473V346.076Z" fill="white"/>
<path d="M400.986 227.708H337.763V290.928H400.986V227.708Z" fill="white"/>
<path d="M375.942 233.11C372.068 232.034 366.719 232.933 365.834 233.003C355.242 233.844 352.284 250.142 352.899 254.753C354.036 263.249 349.889 265.478 344.803 272.058C339.256 279.228 338.584 285.871 340.384 290.928H367.275C373.043 285.857 380.921 278.904 385.865 274.598C386.555 274.343 387.175 274.018 387.732 273.632C398.545 266.18 385.331 235.714 375.939 233.11H375.942Z" fill="#462160"/>
<path d="M376.78 271.82C376.83 271.837 372.382 274.517 368.864 273.789C365.556 273.107 362.192 268.633 362.236 268.622C363.596 268.262 364.846 266.734 364.3 258.601L364.93 258.685L375.534 260.097C375.534 260.097 375.505 263.408 375.693 266.514C375.85 269.12 376.166 271.582 376.78 271.823V271.82Z" fill="#FFB27D"/>
<path d="M375.534 260.094C375.534 260.094 375.505 263.405 375.693 266.511C369.824 266.717 366.388 261.567 364.933 258.685L375.537 260.097L375.534 260.094Z" fill="#ED975D"/>
<path d="M377.676 262.909C377.676 262.909 363.828 264.014 363.271 255.379C362.717 246.744 360.554 241.069 369.375 240C378.193 238.93 380.127 242.113 381.011 244.952C381.898 247.791 381.266 262.402 377.676 262.909Z" fill="#FFB27D"/>
<path d="M379.529 240.472C379.529 240.472 372.521 249.76 366.788 251.627C361.059 253.494 358.432 252.091 358.432 252.091C358.432 252.091 361.265 248.475 362.343 243.398C362.662 241.902 363.752 240.684 365.214 240.234C369.32 238.967 377.218 237.088 379.529 240.472Z" fill="#462160"/>
<path d="M374 240.974C374 240.974 377.485 243.137 378.839 245.007C380.147 246.814 381.44 251.525 381.153 253.573C381.153 253.573 383.754 243.87 380.295 240.176C376.627 236.262 374 240.974 374 240.974Z" fill="#462160"/>
<path d="M389.312 276.045C389.066 275.146 388.503 274.343 387.735 273.632C384.099 270.24 375.925 268.857 375.925 268.857C375.925 268.857 375.922 268.891 375.907 268.949V268.955C375.791 269.393 375.168 271.141 372.413 271.141C370.552 271.141 367.719 270.338 363.41 267.795C363.39 267.781 363.367 267.769 363.346 267.758C363.343 267.755 363.341 267.758 363.341 267.755C363.341 267.755 352.018 268.448 348.1 273.913C345.972 276.88 343.043 283.572 340.599 290.931H393.375C391.568 284.303 389.884 278.127 389.315 276.045H389.312Z" fill="white"/>
<path d="M499.921 272.203H417.714V273.792H499.921V272.203Z" fill="white"/>
<path d="M499.921 279.623H417.714V281.212H499.921V279.623Z" fill="white"/>
<path d="M499.921 287.13H417.714V288.719H499.921V287.13Z" fill="white"/>
<path d="M441.955 228.645H417.714V252.885H441.955V228.645Z" fill="white"/>
<path d="M496.935 247.582H462.664V250.377H496.935V247.582Z" fill="white"/>
<path d="M496.935 254.129H455.201V256.928H496.935V254.129Z" fill="white"/>
<path d="M422.296 238.677L429.835 249.067L438.812 232.46L428.393 241.934L422.296 238.677Z" fill="#462160"/>
<path d="M463.891 415.296H380.703V416.691H463.891V415.296Z" fill="white"/>
<path d="M463.891 421.962H380.703V423.357H463.891V421.962Z" fill="white"/>
<path d="M463.891 430.026H380.703V431.421H463.891V430.026Z" fill="white"/>
<path d="M346.091 418.274C347.21 416.699 348.381 413.933 347.494 411.985C346.682 410.196 345.073 411.025 343.98 412.06C342.35 413.605 341.425 415.728 340.726 417.824C339.877 420.382 339.187 423.044 338.911 425.729C338.688 427.889 338.543 431.218 339.935 433.062C341.115 434.628 343.014 433.343 344.325 432.607C348.46 430.287 351.907 426.581 352.864 421.837C352.986 421.226 352.232 420.666 351.751 421.188C350.8 422.22 350.165 423.482 350.124 424.908C350.101 425.691 350.173 426.932 351.119 427.158C352.226 427.422 353.09 425.882 353.569 425.149C354.529 423.67 355.114 422.014 355.404 420.283C354.975 420.164 354.549 420.048 354.12 419.93C353.934 421.188 354.16 423.435 356.031 423.047C357.799 422.678 357.947 419.64 358.002 418.274C358.031 417.534 356.843 417.352 356.695 418.097C356.451 419.329 356.463 420.536 356.851 421.739C357.046 422.345 357.344 422.878 357.634 423.444C357.913 423.896 358.153 424.369 358.35 424.865C358.768 425.885 358.408 426.317 357.275 426.164C357.141 426.488 357.011 426.816 356.877 427.141C360.015 425.906 363.425 424.209 363.599 420.402C363.636 419.544 362.305 419.547 362.268 420.402C362.126 423.528 359.038 424.868 356.524 425.856C356.109 426.019 355.915 426.422 356.126 426.833C356.857 428.275 358.861 428.127 359.539 426.697C359.989 425.749 359.774 424.714 359.354 423.801C358.507 421.962 357.559 420.579 357.982 418.445C357.547 418.387 357.109 418.326 356.674 418.268C356.645 418.987 356.579 419.695 356.382 420.391C356.324 420.643 356.242 420.883 356.135 421.118C355.923 421.948 355.683 421.669 355.407 420.277C355.529 419.445 354.265 419.071 354.123 419.924C353.853 421.548 353.328 423.084 352.421 424.473C352.009 425.105 351.4 426.367 351.461 424.905C351.507 423.815 351.974 422.913 352.696 422.127C352.325 421.91 351.954 421.695 351.583 421.481C350.956 424.592 349.211 427.228 346.804 429.272C345.659 430.246 344.168 431.458 342.716 431.954C342.153 432.146 341.245 432.195 340.747 431.711C340.55 431.519 340.48 430.771 340.422 430.504C340.196 429.449 340.126 428.365 340.149 427.289C340.225 423.89 341.173 420.33 342.373 417.16C342.95 415.641 343.73 414.127 344.925 412.999C346.442 411.57 346.447 413.843 346.227 414.878C346.012 415.882 345.531 416.772 344.945 417.598C344.447 418.3 345.604 418.964 346.097 418.271L346.091 418.274Z" fill="white"/>
<path d="M9.23346 459.831H655.605C655.66 459.831 655.703 459.875 655.703 459.93V461.902C655.703 461.957 655.66 462 655.605 462H9.23346C9.17837 462 9.13489 461.957 9.13489 461.902V459.93C9.13489 459.875 9.17837 459.831 9.23346 459.831Z" fill="#9C0D38"/>
<path d="M496.413 456.375C496.172 459.637 491.571 459.672 486.348 459.066C481.126 458.46 482.515 459.782 475.202 459.883C467.889 459.985 465.367 457.569 465.013 456.523C464.697 455.595 468.22 454.815 471.989 453.898C472.462 453.785 472.94 453.666 473.416 453.545C477.664 452.466 480.48 449.285 484.113 446.507C487.558 443.877 491.997 434.358 491.997 434.358L501.986 433.909C501.986 433.909 497.779 442.442 496.198 446.119C495.27 448.282 495.665 450.941 496.068 452.982C496.285 454.093 496.5 455.226 496.413 456.375Z" fill="#FFB27D"/>
<path d="M486.348 459.066C481.126 458.46 482.515 459.782 475.202 459.883C467.889 459.985 465.367 457.569 465.013 456.523C464.697 455.595 468.22 454.815 471.989 453.898L472.036 453.968C472.036 453.968 476.745 456.497 482.767 455.891C487.676 455.398 492.684 453.35 496.071 452.982C496.288 454.093 496.503 455.227 496.416 456.375C496.175 459.637 491.573 459.672 486.351 459.066H486.348Z" fill="#462160"/>
<path d="M565.409 457.05C565.171 460.312 560.57 460.353 555.347 459.753C550.125 459.153 551.514 460.472 544.201 460.582C536.889 460.692 534.366 458.277 534.009 457.233C533.693 456.305 537.213 455.522 540.98 454.6C541.452 454.487 541.928 454.365 542.404 454.246C546.652 453.162 549.461 449.978 553.094 447.2C556.536 444.568 553.097 428.973 553.097 428.973L564.087 427.903C564.087 427.903 563.559 441.033 563.568 447C563.568 449.355 564.655 451.619 565.061 453.661C565.279 454.771 565.496 455.905 565.412 457.053L565.409 457.05Z" fill="#FFB27D"/>
<path d="M555.347 459.753C550.125 459.153 551.514 460.472 544.201 460.582C536.889 460.692 534.366 458.277 534.009 457.233C533.693 456.305 537.213 455.522 540.98 454.6L541.023 454.67C541.023 454.67 545.735 457.193 551.758 456.581C556.667 456.085 561.672 454.029 565.058 453.658C565.276 454.768 565.493 455.902 565.409 457.05C565.171 460.313 560.57 460.353 555.347 459.753Z" fill="#462160"/>
<path d="M533.342 187.566C531.452 179.786 534.192 176.162 536.665 174.233C537.84 171.368 539.179 169.307 540.548 168.527C543.044 167.106 546.037 166.952 548.13 167.077C547.591 166.52 546.53 166.317 546.53 166.317C547.829 166.123 550.725 167.41 550.725 167.41C568.781 160.454 571.62 187.038 571.24 193.214C570.863 199.39 570.913 206.665 580.307 211.531C598.23 220.816 574.352 255.808 574.352 255.808C574.807 250.818 551.778 224.478 539.762 216.588C536.836 212.282 535.798 204.676 535.72 204.076C536.224 210.107 537.257 213.491 538.179 215.396C532.701 210.357 531.892 198.254 533.339 187.563L533.342 187.566Z" fill="black"/>
<path d="M540.475 216.985C540.414 217.011 546.277 220.056 550.685 218.85C554.831 217.719 557.543 212.343 557.485 212.328C555.727 211.98 555.223 209.565 555.26 199.196L554.466 199.353L541.116 201.997C541.116 201.997 541.421 206.199 541.429 210.157C541.438 213.48 541.238 216.631 540.475 216.985Z" fill="#FFB27D"/>
<path d="M541.116 201.994C541.116 201.994 541.421 206.196 541.429 210.154C548.899 209.942 552.848 203.128 554.466 199.35L541.116 201.994Z" fill="#ED975D"/>
<path d="M486.801 439.647C486.145 441.7 487.618 443.814 489.77 443.912L494.986 444.156L500.504 444.324C501.884 444.367 503.204 443.764 504.077 442.694C508.481 437.292 522.04 419.28 530.263 393.114C530.495 392.38 530.739 391.638 530.997 390.884C536.428 375.046 547.687 355.169 553.622 337.174C554.568 334.31 555.414 331.61 556.177 329.058C556.42 328.241 556.658 327.437 556.884 326.646C561.257 311.452 562.524 301.477 563.69 290.818L520.842 291.16C520.842 291.16 511.821 361.27 486.804 439.641L486.801 439.647Z" fill="#100223"/>
<path d="M526.836 266.545C526.943 286.936 523.843 295.681 523.843 295.681C523.843 295.681 542.189 305 563.991 298.14C564.249 298.059 579.591 293.715 579.591 293.715C579.226 292.889 576.196 279.249 575.839 278.492C571.235 268.607 569.982 264.455 569.434 261.416C568.422 255.741 568.399 249.873 568.903 244.334C570.234 229.677 574.189 217.51 574.189 217.51C568.248 216.159 562.686 213.784 556.502 211.464C555.081 213.236 550.731 215.089 546.959 215.005C542.615 214.909 541.209 213.05 541.432 211.021C536.805 213.596 533.11 216.028 533.11 216.028C529.176 222.86 521.199 229.497 520.622 239.976C520.48 242.554 526.827 265.974 526.83 266.545H526.836Z" fill="white"/>
<path d="M563.684 268.819C565.557 271.469 569.147 287.582 578.08 289.606C573.476 278.124 569.982 273.087 569.437 269.558C568.425 262.967 568.402 256.147 568.906 249.716C565.917 244.474 563.684 240.881 563.684 240.881C563.449 240.034 558.931 226.064 557.485 238.55C556.041 251.038 561.593 265.852 563.684 268.819Z" fill="#5F9AA8"/>
<path d="M538.62 205.743C538.62 205.743 556.296 206.036 556.307 195.026C556.319 184.017 558.61 176.64 547.324 175.987C536.039 175.335 533.844 179.534 532.945 183.208C532.046 186.881 534.024 205.384 538.62 205.743Z" fill="#FFB27D"/>
<path d="M539.275 175.715C539.275 175.715 544.115 188.633 551.54 190.541C558.966 192.452 562.188 190.46 562.188 190.46C562.188 190.46 556.49 185.933 555.31 178.035C555.31 178.035 542.926 169.565 539.275 175.715Z" fill="black"/>
<path d="M540.475 176.765C540.475 176.765 536.862 179.65 535.981 182.451C535.1 185.255 534.702 191.025 533.02 190.831C533.02 190.831 529.376 182.051 533.473 177.084C537.816 171.818 540.475 176.765 540.475 176.765Z" fill="black"/>
<path d="M510.809 280.699L502.461 306.149L507.223 308.059L521.028 285.573L510.809 280.699Z" fill="#FFB27D"/>
<path d="M533.316 214.529C533.316 214.529 523.472 218.435 520.625 224.524C517.774 230.613 513.463 271.463 511.743 275.656C510.027 279.852 508.733 283.172 508.733 283.172C508.733 283.172 513.697 287.353 518.688 287.661C523.678 287.968 533.316 214.526 533.316 214.526V214.529Z" fill="#462160"/>
<path d="M541.438 211.021C541.438 211.021 531.211 236.282 530.912 241.397C530.611 246.509 529.709 325.002 529.709 325.002C529.709 325.002 530.312 328.612 523.394 327.107C516.475 325.602 514.672 324.1 514.672 324.1C514.672 324.1 521.289 275.682 519.482 258.838C517.679 241.997 533.316 214.529 533.316 214.529L541.438 211.021Z" fill="#462160"/>
<path d="M494.983 444.159L500.974 444.341C502.044 444.373 503.07 443.912 503.752 443.086C507.779 438.209 521.825 419.953 530.26 393.117C530.492 392.383 530.736 391.641 530.994 390.887C536.425 375.049 547.684 355.172 553.619 337.177C554.565 334.312 555.411 331.613 556.174 329.061C556.417 328.244 556.655 327.44 556.881 326.649L550.572 321.861C550.572 321.861 531.629 352.537 525.763 381.405C520.668 406.481 500.266 436.654 494.986 444.156L494.983 444.159Z" fill="#180532"/>
<path d="M549.911 384.096C549.809 397.376 550.438 426.978 552.054 441.448C552.201 442.773 553.321 443.77 554.654 443.77H559.126C561.01 443.77 562.42 443.756 563.356 443.744C564.165 443.732 564.858 443.15 565.015 442.355C569.46 419.732 572.641 400.937 574.972 384.696C576.921 371.103 578.652 359.449 579.986 349.417C581.328 339.32 582.259 330.868 582.592 323.726C582.644 322.601 582.682 321.508 582.702 320.444C582.723 319.376 582.729 318.338 582.72 317.329L545.7 313.719C546.167 338.317 549.972 375.934 549.911 384.093V384.096Z" fill="#100223"/>
<path d="M559.126 443.77C560.819 443.77 562.127 443.759 563.055 443.747C564.041 443.735 564.882 443.028 565.07 442.062C569.486 419.57 572.65 400.864 574.969 384.696C576.918 371.103 578.649 359.449 579.983 349.417C581.325 339.32 582.256 330.868 582.59 323.726L569.005 331.717C569.005 331.717 577.675 334.776 574.366 357.933C571.058 381.089 563.725 440.494 559.123 443.773L559.126 443.77Z" fill="#180532"/>
<path d="M557.377 323.497C557.377 323.497 559.984 332.918 569.008 331.714C578.031 330.511 590.859 325.097 590.859 325.097C590.859 325.097 587.003 312.913 582.21 296.91C576.405 277.532 569.222 252.555 565.835 236.798C564.884 232.382 564.235 228.697 563.994 226.055L556.51 211.534C556.51 211.534 545.35 236.584 544.749 242.899C544.149 249.214 557.38 323.497 557.38 323.497H557.377Z" fill="#462160"/>
<path d="M566.384 241.957L556.505 211.534C556.531 211.546 568.982 215.24 575.245 218.403C575.245 218.403 579.159 223.451 581.58 235.093C581.58 235.093 584.141 263.049 578.426 273.273C578.426 273.273 560.381 276.883 531.51 266.957V260.34C531.51 260.34 563.087 261.996 569.553 262.747L566.381 241.957H566.384Z" fill="#FFB27D"/>
<path d="M557.777 256.13C558.18 266.354 560.587 286.205 582.038 296.829C582.096 296.855 582.152 296.887 582.21 296.91C576.405 277.532 569.222 252.555 565.835 236.798C561.895 242.687 557.56 250.499 557.78 256.13H557.777Z" fill="#572D75"/>
<path d="M556.504 211.534C556.504 211.534 574.818 212.824 579.229 222.648C583.639 232.472 585.043 265.154 579.429 274.775C579.429 274.775 571.701 276.975 558.03 274.421C557.861 274.389 557.693 274.357 557.525 274.325C557.525 274.325 553.164 263.649 557.073 261.544C557.073 261.544 568.602 262.144 567.398 258.337C566.195 254.527 556.504 211.534 556.504 211.534Z" fill="#462160"/>
<path d="M510.592 264.429L511.131 266.163L541.18 256.814C541.18 256.814 541.58 256.356 541.383 255.75C541.166 255.08 540.641 255.08 540.641 255.08L510.592 264.429Z" fill="#FFA100"/>
<path d="M508.417 266.067L510.592 264.429L511.131 266.163L508.417 266.067Z" fill="#FFA100"/>
<path d="M503.647 305.455C503.647 305.455 496.024 309.669 495.021 312.878C494.018 316.088 494.708 322.81 495.917 322.708C497.126 322.607 498.933 315.485 499.936 314.986C500.939 314.485 502.343 312.98 502.343 314.085C502.343 315.189 501.339 317.193 501.841 317.495C502.343 317.796 503.946 314.688 505.051 314.085C506.156 313.482 506.617 308.523 507.689 307.189C508.762 305.858 503.647 305.458 503.647 305.458V305.455Z" fill="#FFB27D"/>
<path d="M531.513 260.34C531.513 260.34 524.696 256.142 521.837 256.788C518.978 257.435 511.688 262.712 515.194 263.855C518.699 264.997 521.538 263.8 522.886 264.629C524.235 265.458 525.229 266.978 531.513 266.957C537.796 266.937 531.513 260.34 531.513 260.34Z" fill="#FFB27D"/>
<path d="M282.815 303.449H161.942V447.577H282.815V303.449Z" fill="#C3D2FF"/>
<path d="M231.671 420.22L258.108 407.486L242.287 374.641L215.85 387.375L231.671 420.22Z" fill="#B0C3F4"/>
<path d="M282.818 378.593V420.692L277.581 417.665L271.492 414.153L266.589 411.321L265.067 410.442L261.932 408.633L263.904 405.214L274.905 386.161L280.162 377.059L282.818 378.593Z" fill="#B0C3F4"/>
<path d="M255.607 433.477L266.699 406.31L232.947 392.529L221.855 419.696L255.607 433.477Z" fill="#B0C3F4"/>
<path d="M209.438 438.986L233.241 421.825L211.921 392.252L188.118 409.413L209.438 438.986Z" fill="#B0C3F4"/>
<path d="M282.818 398.406V435.909L277.054 440.499L261.022 420.359L260.355 419.524L258.879 417.665L258.777 417.54L263.8 413.542L263.805 413.539L266.589 411.321L281.363 399.563L282.818 398.406Z" fill="#B0C3F4"/>
<path d="M282.818 402.584V408.699L271.492 414.153L264.206 417.665L261.607 418.915L260.355 419.524L258.775 420.283L257.513 417.665L253.665 409.679L248.478 398.913L242.948 387.436L247.379 385.302L269.384 374.701L274.905 386.161L281.363 399.563L282.818 402.584Z" fill="#B0C3F4"/>
<path d="M282.818 417.665H188.12V447.403H282.818V417.665Z" fill="#B0C3F4"/>
<path d="M132.366 447.58H249.823L249.823 303.452H132.366V447.58Z" fill="#D7E1FF"/>
<path d="M175.92 420.222L202.357 407.487L186.536 374.642L160.099 387.377L175.92 420.222Z" fill="#E3EBFF"/>
<path d="M199.997 407.781L222.821 426.224L245.735 397.868L222.911 379.425L199.997 407.781Z" fill="#E3EBFF"/>
<path d="M199.863 433.484L210.955 406.318L177.203 392.537L166.111 419.704L199.863 433.484Z" fill="#E9EFFF"/>
<path d="M153.688 438.983L177.491 421.822L156.17 392.249L132.367 409.41L153.688 438.983Z" fill="#E9EFFF"/>
<path d="M203.027 417.54L221.302 440.499L249.826 417.794L231.55 394.835L203.027 417.54Z" fill="#E9EFFF"/>
<path d="M203.01 420.344L229.445 407.605L213.618 374.763L187.183 387.502L203.01 420.344Z" fill="#E9EFFF"/>
<path d="M132.366 447.403H249.823V417.665H132.366V447.403Z" fill="#E9EFFF"/>
<path d="M249.826 384.122L242.948 387.436L249.823 401.708L249.826 384.122Z" fill="#E3EBFF"/>
<path d="M249.823 303.452H132.366V328.467H249.823V303.452Z" fill="#462160"/>
<path d="M283.239 303.452H249.823V328.467H283.239V303.452Z" fill="#100223"/>
<path d="M165.372 310.53H168.011L170.849 318.179L173.688 310.53H176.263L171.873 321.47H169.762L165.372 310.53Z" fill="white"/>
<path d="M176.762 315.961C176.762 312.873 179.198 310.344 182.55 310.344C185.901 310.344 188.305 312.844 188.305 315.961C188.305 319.078 185.87 321.577 182.518 321.577C179.166 321.577 176.762 319.081 176.762 315.961ZM185.809 315.961C185.809 314.099 184.443 312.548 182.52 312.548C180.598 312.548 179.261 314.07 179.261 315.961C179.261 317.851 180.627 319.374 182.55 319.374C184.472 319.374 185.809 317.854 185.809 315.961Z" fill="white"/>
<path d="M192.498 312.733H189.193V310.53H198.193V312.733H194.887V321.392H192.498V312.733Z" fill="white"/>
<path d="M200.025 310.53H208.217V312.655H202.397V314.859H207.518V316.984H202.397V319.266H208.292V321.392H200.023V310.53H200.025Z" fill="white"/>
<path d="M249.826 447.406H243.868V459.883H249.826V447.406Z" fill="#522B73"/>
<path d="M282.833 447.406H276.874V459.883H282.833V447.406Z" fill="#522B73"/>
<path d="M138.333 447.406H132.374V459.883H138.333V447.406Z" fill="#522B73"/>
<path d="M178.064 291.124L219.317 287.726L214.843 233.426L173.591 236.825L178.064 291.124Z" fill="white"/>
<path d="M179.819 289.06L217.3 285.972L213.131 235.371L175.65 238.459L179.819 289.06Z" fill="#E7EDFF"/>
<path d="M180.737 262.421L200.275 260.812L200.248 260.491L180.71 262.101L180.737 262.421Z" fill="white"/>
<path d="M180.858 263.918L200.396 262.309L200.369 261.988L180.831 263.598L180.858 263.918Z" fill="white"/>
<path d="M180.977 265.439L200.515 263.829L200.489 263.508L180.951 265.118L180.977 265.439Z" fill="white"/>
<path d="M180.782 257.49L191.301 256.624L191.243 255.919L180.724 256.785L180.782 257.49Z" fill="white"/>
<path d="M180.781 259.329L193.591 258.274L193.533 257.568L180.723 258.624L180.781 259.329Z" fill="white"/>
<path d="M204.306 263.528L213.294 262.787L212.553 253.8L203.566 254.54L204.306 263.528Z" fill="white"/>
<path d="M210.983 257.484L208.837 261.022L205.514 255.927L209.11 258.69L210.983 257.484Z" fill="#462160"/>
<path d="M182.191 280.275L201.729 278.665L201.702 278.344L182.164 279.954L182.191 280.275Z" fill="white"/>
<path d="M182.312 281.769L201.85 280.159L201.823 279.838L182.285 281.448L182.312 281.769Z" fill="white"/>
<path d="M182.437 283.286L201.975 281.676L201.949 281.356L182.411 282.965L182.437 283.286Z" fill="white"/>
<path d="M182.257 275.306L192.776 274.439L192.718 273.734L182.199 274.601L182.257 275.306Z" fill="white"/>
<path d="M182.249 277.159L195.059 276.103L195.001 275.398L182.191 276.454L182.249 277.159Z" fill="white"/>
<path d="M205.766 281.369L214.753 280.629L214.013 271.642L205.026 272.382L205.766 281.369Z" fill="white"/>
<path d="M212.442 275.328L210.296 278.863L206.973 273.768L210.569 276.535L212.442 275.328Z" fill="#462160"/>
<path d="M178.919 247.934L198.458 246.324L198.431 246.004L178.893 247.613L178.919 247.934Z" fill="white"/>
<path d="M179.041 249.431L198.579 247.821L198.552 247.501L179.014 249.11L179.041 249.431Z" fill="white"/>
<path d="M179.169 250.937L198.707 249.327L198.681 249.006L179.142 250.616L179.169 250.937Z" fill="white"/>
<path d="M178.965 243.003L189.484 242.136L189.426 241.431L178.907 242.298L178.965 243.003Z" fill="white"/>
<path d="M178.966 244.836L191.777 243.78L191.719 243.075L178.908 244.131L178.966 244.836Z" fill="white"/>
<path d="M202.48 249.055L211.468 248.314L210.727 239.327L201.74 240.068L202.48 249.055Z" fill="white"/>
<path d="M209.168 242.995L207.022 246.529L203.699 241.435L207.295 244.201L209.168 242.995Z" fill="#462160"/>
<path d="M170.313 244.352C171.026 243.847 171.583 242.725 172.317 241.884C172.862 241.261 173.897 240.661 173.897 240.661C173.897 240.661 174.004 242.119 174.114 243.299C176.28 242.49 179.54 241.745 184.742 242.743C185.782 242.943 186.728 243.534 187.302 244.427C187.833 245.254 188.03 246.286 186.702 247.112C184.046 248.762 184.817 247.773 181.126 250.177C177.437 252.581 172.92 253.196 170.22 251.508L166.599 250.905L166.149 244.946C166.149 244.946 168.214 244.7 170.31 244.349L170.313 244.352Z" fill="#FFB27D"/>
<path d="M75.3998 194.383C75.3998 194.383 83.9391 204.514 94.8127 200.275C94.8127 200.275 97.1527 194.618 97.1846 190.445C97.1875 189.932 97.1933 189.433 97.202 188.96C97.26 184.263 97.4195 181.627 97.4195 181.627C97.4195 181.627 97.4166 181.627 97.4079 181.627C96.9121 181.421 80.7844 174.799 80.7989 175.35C81.0743 188.053 75.3998 194.38 75.3998 194.38V194.383Z" fill="#FFB27D"/>
<path d="M82.4198 178.38C83.974 181.262 89.3122 186.902 97.205 188.963C97.263 184.266 97.4225 181.63 97.4225 181.63C97.4225 181.63 97.4196 181.63 97.4109 181.63C96.9643 181.511 81.9588 177.53 82.4198 178.38Z" fill="#ED975D"/>
<path d="M100.798 181.143C100.798 181.143 82.6604 185.408 80.1784 174.071C77.6963 162.733 73.6832 155.65 85.1599 152.448C96.6366 149.247 99.8407 153.078 101.589 156.662C103.338 160.243 105.451 179.743 100.798 181.143Z" fill="#FFB27D"/>
<path d="M80.7989 177.162C80.5525 177.321 76.6496 178.519 69.2584 163.795C68.0986 161.484 67.307 156.482 70.0123 152.066C72.7177 147.647 82.3067 144.173 90.2749 142.662C98.243 141.152 100.154 145.634 102.033 150.14C104.002 154.87 109.691 158.764 109.691 158.764C102.819 162.603 94.546 157.111 91.6783 158.016C88.8106 158.917 87.7986 163.438 87.5841 164.885C87.3695 166.335 87.0389 167.538 83.4347 166.245C79.8305 164.952 81.8051 171.354 82.3821 172.578C82.3821 172.578 82.8722 175.84 80.8047 177.165L80.7989 177.162Z" fill="black"/>
<path d="M34.0744 459.863H23.0907C20.7884 459.863 18.2309 457.558 17.5901 453.339C16.9493 449.114 12.2171 446.812 11.1935 443.358C10.17 439.902 15.4183 435.039 15.4183 435.039L16.2969 433.912L17.2102 432.737L25.9091 434.784C25.9091 434.784 26.1237 436.855 26.2571 439.493C26.3499 441.398 26.402 443.602 26.2919 445.533C26.0367 450.141 27.5822 455.102 31.6735 455.998C35.7678 456.894 34.0744 459.866 34.0744 459.866V459.863Z" fill="#0A0623"/>
<path d="M110.532 459.863H81.4195C81.1411 459.808 80.9294 459.747 80.8018 459.683C78.8591 458.709 79.4651 451.269 79.7 448.969C79.7435 448.543 79.7783 448.294 79.7783 448.294C79.7783 448.294 90.0139 440.105 91.4231 446.377C91.4666 446.571 91.5188 446.766 91.5739 446.954C93.3514 452.823 101.296 455.488 105.884 456.23C109.389 456.801 110.3 458.842 110.532 459.863Z" fill="#0A0623"/>
<path d="M104.666 291.981C104.666 291.981 103.111 311.377 101.285 334.695C98.7997 366.368 95.8131 405.275 95.5203 412.646C95.0099 425.445 92.9599 445.916 92.9599 445.916C92.9599 445.916 88.1001 450.779 78.3719 448.731C78.3719 448.731 69.7049 419.506 67.2287 388.585C67.191 388.077 67.1533 387.567 67.1127 387.057C64.8104 355.578 61.2294 289.296 61.2294 289.296L104.669 291.984L104.666 291.981Z" fill="#120D31"/>
<path d="M104.666 291.981C104.666 291.981 103.111 311.377 101.285 334.695L67.2287 388.585C67.191 388.077 67.1533 387.567 67.1127 387.057C64.8104 355.578 61.2294 289.296 61.2294 289.296L104.669 291.984L104.666 291.981Z" fill="#1A1342"/>
<path d="M97.5645 294.283C97.5645 294.283 69.5426 364.532 51.1155 397.544C32.6884 430.557 26.9327 439.772 26.9327 439.772C26.9327 439.772 16.3752 435.55 15.4154 432.67C15.4154 432.67 22.4615 368.937 34.8022 353.401C41.7758 344.621 49.9644 318.278 50.35 309.063C50.7327 299.851 52.8466 281.615 52.8466 281.615L97.5674 294.283H97.5645Z" fill="#120D31"/>
<path d="M33.657 281.519L33.3612 286.037C33.3612 286.037 36.342 294.063 27.9911 298.18C27.9911 298.18 24.4188 299.621 24.2738 296.841C24.1288 294.06 24.587 295.104 24.297 291.186C24.007 287.269 25.5467 283.566 28.139 282.319L30.2644 279.866L33.6598 281.519H33.657Z" fill="#FFB27D"/>
<path d="M30.3977 284.81C33.5003 285.805 33.9962 285.581 33.9962 285.581C33.9962 285.581 49.0916 258.096 50.6226 255.579C52.1507 253.062 82.675 224.756 82.675 224.756L74.8315 195.505C74.8315 195.505 40.1144 240.461 36.3652 246.912C30.1687 257.571 26.5413 282.331 26.5413 282.331C26.5413 282.331 27.9621 284.027 30.4006 284.807L30.3977 284.81Z" fill="#CA0B44"/>
<path d="M110.581 236.242C110.471 242.25 110.123 249 109.653 255.86C109.624 256.266 109.595 256.672 109.566 257.081C109.264 261.329 107.974 276.149 107.907 276.746C106.376 292.303 104.773 304.591 104.474 304.78C104.118 305.018 103.717 305.137 103.28 305.084C99.1999 304.571 87.0302 305.496 77.0642 303.33C68.6553 301.556 61.4149 298.195 53.7425 293.66C52.7248 293.057 50.4022 291.462 50.5907 290.273C50.7762 288.962 51.1184 287.072 51.5533 284.691C53.064 276.416 55.6737 262.184 56.5639 245.526C56.7379 242.424 56.9901 239.359 57.3149 236.346C58.1703 228.5 59.5418 221.045 61.3773 214.422C64.793 202.119 69.8151 192.701 76.1131 189.013C76.9366 188.552 81.3643 191.37 85.4325 193.98C89.1875 196.386 93.1426 197.053 96.9874 196.717L100.371 200.46C104.468 205.224 108.835 211.569 110.024 220.584C110.114 221.251 110.189 221.958 110.253 222.709C110.584 226.383 110.662 231.031 110.569 236.239L110.581 236.242Z" fill="#9C0D38"/>
<path d="M110.581 236.242C110.471 242.25 110.123 249 109.653 255.86C109.624 256.266 109.595 256.672 109.566 257.081C86.2648 242.496 82.675 215.808 82.675 215.808C94.1372 216.31 103.245 218.945 110.262 222.715C110.593 226.389 110.671 231.037 110.578 236.244L110.581 236.242Z" fill="#CA0B44"/>
<path d="M169.455 247.73C169.695 244.274 167.906 243.699 167.906 243.699C167.906 243.699 132.775 237.332 129.788 236.392C126.801 235.453 101.264 208.887 101.264 208.887C101.264 208.887 91.4753 197.848 83.4608 200.286C76.4959 202.406 73.7732 207.837 72.8453 213.013C71.7405 219.18 74.5851 225.385 79.9262 228.662C91.9161 236.015 115.919 250.505 121.57 252.16C134.152 255.849 167.956 252.456 167.956 252.456C167.956 252.456 169.269 250.444 169.458 247.727L169.455 247.73Z" fill="#9C0D38"/>
<path d="M175.788 199.947H144.591V168.75H175.788V199.947ZM145.887 198.651H174.491V170.046H145.887V198.651Z" fill="#EFCFE3"/>
<path d="M149.819 180.641L159.967 194.629L172.053 172.276L158.027 185.026L149.819 180.641Z" fill="#EFCFE3"/>
<path d="M221.825 162.232H190.628V131.035H221.825V162.232ZM191.924 160.936H220.529V132.331H191.924V160.936Z" fill="#EFCFE3"/>
<path d="M195.856 142.926L206.002 156.914L218.09 134.561L204.062 147.31L195.856 142.926Z" fill="#EFCFE3"/>
<defs>
<linearGradient id="paint0_linear_5_427" x1="321.287" y1="284.39" x2="562.62" y2="284.39" gradientUnits="userSpaceOnUse">
<stop stop-color="#9C0D38"/>
<stop offset="1" stop-color="#9C0D38"/>
</linearGradient>
</defs>
</svg>
