<svg width="327" height="338" viewBox="0 0 327 338" fill="none" xmlns="http://www.w3.org/2000/svg">
<mask id="path-1-inside-1_26_1223" fill="white">
<path d="M326.887 227.971C316.04 256.922 297.441 282.334 273.125 301.427C248.808 320.52 219.71 332.56 189.012 336.23C158.314 339.899 127.198 335.057 99.0663 322.234C70.9346 309.41 46.8703 289.098 29.5049 263.52C12.1395 237.941 2.14147 208.079 0.604094 177.201C-0.933286 146.323 6.04916 115.616 20.788 88.4386C35.5267 61.2612 57.4544 38.6596 84.1732 23.1051C110.892 7.5506 141.373 -0.357929 172.284 0.244267L170.677 82.7484C154.895 82.441 139.332 86.4788 125.69 94.4205C112.048 102.362 100.852 113.902 93.3271 127.778C85.8019 141.654 82.2369 157.332 83.0218 173.098C83.8068 188.863 88.9115 204.109 97.7778 217.169C106.644 230.229 118.931 240.6 133.294 247.147C147.657 253.695 163.544 256.167 179.218 254.293C194.891 252.419 209.748 246.272 222.163 236.524C234.579 226.776 244.075 213.801 249.613 199.019L326.887 227.971Z"/>
</mask>
<path d="M326.887 227.971C316.04 256.922 297.441 282.334 273.125 301.427C248.808 320.52 219.71 332.56 189.012 336.23C158.314 339.899 127.198 335.057 99.0663 322.234C70.9346 309.41 46.8703 289.098 29.5049 263.52C12.1395 237.941 2.14147 208.079 0.604094 177.201C-0.933286 146.323 6.04916 115.616 20.788 88.4386C35.5267 61.2612 57.4544 38.6596 84.1732 23.1051C110.892 7.5506 141.373 -0.357929 172.284 0.244267L170.677 82.7484C154.895 82.441 139.332 86.4788 125.69 94.4205C112.048 102.362 100.852 113.902 93.3271 127.778C85.8019 141.654 82.2369 157.332 83.0218 173.098C83.8068 188.863 88.9115 204.109 97.7778 217.169C106.644 230.229 118.931 240.6 133.294 247.147C147.657 253.695 163.544 256.167 179.218 254.293C194.891 252.419 209.748 246.272 222.163 236.524C234.579 226.776 244.075 213.801 249.613 199.019L326.887 227.971Z" stroke="#F40000" stroke-width="164" mask="url(#path-1-inside-1_26_1223)"/>
</svg>
