<svg width="207" height="197" viewBox="0 0 207 197" fill="none" xmlns="http://www.w3.org/2000/svg">
<g clipPath="url(#clip0_176_59)">
<path d="M42.0145 110.178C7.99907 129.924 7.99907 161.942 42.0145 181.692C76.03 201.439 131.178 201.439 165.193 181.692C199.209 161.946 199.209 129.929 165.193 110.178C131.178 90.4314 76.03 90.4314 42.0145 110.178Z" fill="#F5F5F5" fill-opacity="0.5"/>
<path d="M101.987 192.411L41.1216 157.186L101.987 121.821L162.857 157.042L101.987 192.411Z" fill="#E0E0E0"/>
<path d="M101.987 185.214V138.477L52.96 110.121V156.855L101.987 185.214Z" fill="#9C0D38"/>
<path d="M101.987 138.477L151.014 109.995V156.733L101.987 185.215V138.477Z" fill="#9C0D38"/>
<path opacity="0.15" d="M101.987 138.477L151.014 109.995V156.733L101.987 185.215V138.477Z" fill="white"/>
<path d="M101.987 138.477L51.6812 109.367L101.987 80.1354L152.293 109.249L101.987 138.477Z" fill="#9C0D38"/>
<path opacity="0.3" d="M101.987 138.477L51.6812 109.367L101.987 80.1354L152.293 109.249L101.987 138.477Z" fill="white"/>
<path d="M101.987 138.477V146.824L51.6812 117.723V109.367L101.987 138.477Z" fill="#9C0D38"/>
<path d="M152.293 109.249L101.987 138.477V146.824L152.293 117.601V109.249Z" fill="#9C0D38"/>
<path opacity="0.15" d="M152.293 109.249L101.987 138.477V146.824L152.293 117.601V109.249Z" fill="white"/>
<path opacity="0.1" d="M52.96 118.464V120.3L101.987 148.66V146.824L52.96 118.464ZM151.018 118.342L101.987 146.824V148.66L151.014 120.178V118.342H151.018Z" fill="black"/>
<path d="M84.0884 115.797L90.7987 119.694L119.885 102.815L113.175 98.9229L84.0884 115.797Z" fill="#9C0D38"/>
<path opacity="0.2" d="M118.208 103.792L119.886 102.815L113.175 98.9229L113.184 100.884L118.208 103.792Z" fill="black"/>
<path opacity="0.1" d="M85.766 116.773L113.175 100.871V98.9229L84.0884 115.797L85.766 116.773Z" fill="black"/>
<path d="M112.443 165.529L109.274 155.473L111.693 154.069L113.063 158.916C113.609 160.826 113.821 161.619 113.834 161.662L113.873 161.641C113.886 161.584 114.103 160.538 114.632 158.053L116.015 151.558L118.321 150.22L115.152 163.955L112.438 165.529H112.443Z" fill="#FAFAFA"/>
<path d="M123.115 147.199C125.829 145.626 127.793 147.034 127.793 150.669C127.793 154.304 125.829 157.997 123.115 159.57C120.402 161.144 118.438 159.736 118.438 156.1C118.438 152.465 120.402 148.773 123.115 147.199ZM123.115 156.868C124.585 156.013 125.651 154.039 125.651 151.911C125.651 149.784 124.589 149.03 123.115 149.884C121.646 150.739 120.579 152.713 120.579 154.858C120.579 157.003 121.646 157.722 123.115 156.868Z" fill="#FAFAFA"/>
<path d="M133.076 144.3V153.546L130.948 154.784V145.538L128.234 147.112V144.462L135.786 140.077V142.727L133.072 144.3H133.076Z" fill="#FAFAFA"/>
<path d="M136.891 139.436L143.354 135.683V138.333L139.02 140.848V142.888L142.214 141.036V143.416L139.02 145.268V147.443L143.419 144.889V147.539L136.891 151.327V139.431V139.436Z" fill="#FAFAFA"/>
<path d="M168.64 83.2303C169.355 83.4656 172.199 84.0105 172.316 82.8336C172.351 82.4849 172.168 82.1579 171.995 81.8615C171.02 80.2094 169.871 78.5138 168.115 77.7422C166.295 76.9445 164.11 76.7571 162.168 76.4127C159.975 76.0248 157.777 75.5976 155.644 74.9263C155.406 74.8522 155.15 74.7694 154.907 74.8347C154.413 74.9655 154.248 75.5932 154.27 76.1076C154.335 77.5897 155.211 78.9453 156.342 79.9C156.953 80.4143 157.638 80.8328 158.375 81.1379C159.307 81.5215 160.226 81.6218 161.193 81.7918C162.242 81.9792 163.26 82.3149 164.327 82.4761C164.674 82.5285 168.649 83.0559 168.649 83.2346L168.64 83.2303Z" fill="#F0997A"/>
<path d="M153.03 87.7375C145.401 81.4604 137.771 75.1834 130.142 68.9064C140.177 61.7227 147.009 53.3272 152.024 42.0111C159.654 48.2881 167.283 54.5651 174.912 60.8422C169.897 72.1539 163.065 80.5494 153.03 87.7375Z" fill="#FAFAFA" stroke="#9C0D38" stroke-miterlimit="10"/>
<path d="M155.687 64.6084C152.497 61.9843 150.901 60.6722 147.715 58.048C150.23 54.7003 151.339 52.9 153.212 49.1207C156.402 51.7449 157.998 53.0569 161.184 55.6811C159.311 59.4604 158.201 61.2607 155.687 64.6084Z" stroke="#37474F" stroke-miterlimit="10"/>
<path d="M145.279 75.2314C142.089 72.6072 140.494 71.2951 137.308 68.671C140.619 66.0774 142.154 64.6258 144.924 61.4873C148.114 64.1114 149.71 65.4235 152.896 68.0477C150.13 71.1905 148.596 72.6421 145.279 75.2314Z" stroke="#37474F" stroke-miterlimit="10"/>
<path d="M167.474 64.9789C165.233 63.135 164.11 62.2109 161.869 60.3671C161.665 60.1971 161.604 59.8701 161.739 59.6347C161.756 59.5999 161.765 59.5868 161.786 59.5519C161.916 59.3165 162.19 59.2599 162.393 59.4299C164.634 61.2737 165.757 62.1979 167.998 64.0417C168.202 64.2117 168.267 64.543 168.133 64.7784C168.115 64.8133 168.107 64.8264 168.085 64.8612C167.955 65.0966 167.677 65.1533 167.474 64.9833V64.9789Z" fill="#E0E0E0"/>
<path d="M168.332 69.1549C165.189 66.57 163.62 65.2754 160.477 62.6905C160.274 62.5205 160.222 62.1979 160.365 61.9712C160.386 61.9407 160.395 61.9233 160.417 61.8884C160.56 61.6574 160.841 61.6094 161.045 61.7751C164.188 64.36 165.757 65.6546 168.9 68.2395C169.104 68.4095 169.16 68.7321 169.017 68.9631C168.995 68.9937 168.987 69.0111 168.965 69.046C168.822 69.277 168.54 69.3249 168.332 69.1549Z" fill="#E0E0E0"/>
<path d="M167.313 70.711C164.17 68.1261 162.601 66.8315 159.458 64.2466C159.255 64.0766 159.211 63.7584 159.359 63.536C159.38 63.5055 159.389 63.4881 159.411 63.4576C159.562 63.2309 159.849 63.1873 160.052 63.353C163.195 65.9379 164.764 67.2325 167.907 69.8174C168.111 69.9874 168.158 70.3056 168.011 70.5323C167.989 70.5628 167.981 70.5803 167.959 70.6108C167.807 70.8374 167.521 70.881 167.313 70.711Z" fill="#E0E0E0"/>
<path d="M158.219 77.1232C155.978 75.2793 154.855 74.3552 152.614 72.5113C152.41 72.3413 152.397 72.0493 152.588 71.8575C152.614 71.8313 152.627 71.8182 152.653 71.7877C152.844 71.5959 153.16 71.5741 153.364 71.7441C155.605 73.588 156.728 74.5121 158.969 76.356C159.173 76.526 159.19 76.8181 158.999 77.0142C158.973 77.0404 158.96 77.0535 158.934 77.084C158.743 77.2758 158.423 77.2932 158.219 77.1232Z" fill="#E0E0E0"/>
<path d="M158.514 80.8415C155.371 78.2565 153.802 76.9619 150.659 74.377C150.455 74.207 150.451 73.9237 150.646 73.7406C150.672 73.7144 150.689 73.7013 150.715 73.6752C150.915 73.4921 151.24 73.479 151.444 73.649C154.586 76.2339 156.156 77.5286 159.298 80.1135C159.502 80.2835 159.511 80.5712 159.311 80.7543C159.285 80.7804 159.268 80.7935 159.242 80.8197C159.043 81.0027 158.713 81.0115 158.509 80.8458L158.514 80.8415Z" fill="#E0E0E0"/>
<path d="M157.113 82.0707C153.971 79.4858 152.402 78.1912 149.259 75.6063C149.055 75.4363 149.055 75.1573 149.259 74.9829C149.289 74.9568 149.302 74.9437 149.332 74.9219C149.536 74.7432 149.866 74.7345 150.074 74.9045C153.216 77.4894 154.786 78.784 157.928 81.3689C158.132 81.5389 158.137 81.8223 157.928 81.9966C157.898 82.0228 157.885 82.0359 157.855 82.0577C157.651 82.2364 157.317 82.2407 157.109 82.0707H157.113Z" fill="#E0E0E0"/>
<path d="M153.511 60.5022C153.134 57.8214 152.913 56.4526 152.389 53.6846C153.329 53.5059 153.797 53.4144 154.716 53.2269C155.02 54.6959 155.159 55.4239 155.419 56.8667C158.488 55.6113 159.944 54.9357 162.697 53.519C163.135 54.5957 163.351 55.1318 163.772 56.2042C159.949 58.0742 157.89 58.946 153.507 60.5022H153.511Z" fill="#9C0D38"/>
<path d="M198.376 95.3353C196.335 94.4112 189.837 94.0363 186.261 93.2692C181.913 92.3363 179.776 90.8324 176.386 86.6957C172.992 82.5633 172.263 81.6872 171.136 80.3097C170.33 79.3202 170.243 78.771 166.658 78.7056C163.069 78.6358 158.379 78.9933 157.187 79.1241C155.999 79.2505 154.807 79.3028 152.527 80.1528C150.251 81.0072 148.998 81.4343 147.975 82.0054C146.952 82.5764 146.588 84.49 146.194 85.6626C145.799 86.8352 145.686 87.816 146.523 88.0775C147.355 88.3391 148.998 88.2693 150.407 86.4037L151.664 86.0462C151.664 86.0462 148.99 88.1168 148.578 88.9624C148.166 89.8081 148.014 91.4645 148.578 92.3407C149.137 93.2168 150.017 94.5289 150.017 94.5289C150.017 94.5289 149.41 96.0589 150.589 97.2838C151.76 98.5087 152.514 99.2062 152.514 99.2062C152.514 99.2062 151.647 99.7423 150.953 100.588C150.277 101.416 151.04 102.606 152.843 102.619C154.265 102.628 156.519 101.421 158.218 101.02C159.918 100.623 162.38 99.7423 163.628 100.174C164.027 100.313 164.838 100.919 165.588 101.377C166.333 101.835 167.01 102.14 167.863 102.82C169.567 104.18 170.525 105.705 173.464 106.329C176.407 106.948 178.224 106.617 180.647 107.589C182.238 108.229 198.268 115.67 198.645 115.866C203.249 118.264 206.76 115.348 206.496 109.337C206.235 103.321 203.114 97.4625 198.385 95.3223L198.376 95.3353ZM152.384 92.563L152.202 92.2186L154.027 90.5273C154.027 90.5273 155.661 90.3791 156.996 90.3965C155.778 90.6014 155.154 90.8673 154.595 91.2335C153.892 91.6999 152.384 92.563 152.384 92.563ZM155.865 97.0484C154.521 97.6674 154.009 98.0946 154.009 98.0946L153.767 97.0048C153.767 97.0048 155.21 96.1941 155.527 96.1287C155.847 96.0677 158.825 95.7843 159.931 95.5882C157.802 96.1548 156.853 96.5864 155.865 97.0441V97.0484Z" fill="#FFBDA7"/>
<path d="M187.5 109.86C186.226 109.093 184.999 108.426 183.291 107.297C182.762 106.948 181.783 106.377 181.176 106.211C180.682 106.076 180.161 106.072 179.65 106.107C178.263 106.202 176.845 106.564 175.467 106.647C175.614 106.66 175.749 106.686 175.879 106.708C177.561 106.882 178.952 106.926 180.638 107.606C181.566 107.981 187.388 110.657 192.169 112.872C192.169 112.872 188.766 110.631 187.5 109.864V109.86Z" fill="#F0997A"/>
<path d="M162.051 83.2696C160.442 83.1867 158.843 83.056 157.235 82.9949C156.701 82.9688 156.116 82.9949 155.592 83.2042C154.79 83.5398 154.07 84.0106 153.39 84.5468C152.358 85.0175 150.893 85.4665 150.065 85.5799C148.981 85.7281 147.88 85.1265 147.967 85.2268C148.053 85.3227 148.747 85.9634 148.305 86.9224C148.036 87.5065 147.676 87.9599 147.221 88.1996C148.105 88.2214 149.328 87.8509 150.412 86.4168L151.669 86.0593C151.669 86.0593 154.213 84.0673 155.696 83.4962C156.181 83.3131 156.688 83.2957 157.226 83.3219C158.83 83.3829 160.442 83.4483 162.051 83.4308C162.588 83.4047 163.134 83.4308 163.655 83.2957C163.121 83.3567 162.584 83.3001 162.051 83.2739V83.2696ZM152.206 92.2187L154.031 90.5274C155.054 90.4402 156.047 90.3922 157.001 90.3966C158.357 90.1045 161.162 89.4943 161.96 88.6268C160.746 89.163 159.177 89.6817 157.49 89.6556C155.808 89.6294 154.608 89.3112 153.814 89.8692C153.021 90.4271 151.656 91.9484 151.517 92.1577C151.006 92.9248 150.16 93.3913 150.013 94.5377C150.312 93.8097 152.388 92.563 152.388 92.563L152.206 92.2187ZM155.913 95.5403C155.418 95.6536 154.092 96.2813 153.541 96.5995C152.991 96.9177 153.424 97.5585 152.761 97.8854C152.098 98.208 150.702 97.419 150.702 97.419C151.807 98.5654 152.51 99.2237 152.51 99.2237L154.014 98.099C154.062 97.8549 153.979 97.4931 153.771 97.0093C153.771 97.0093 155.215 96.1985 155.531 96.1331C155.852 96.0721 158.83 95.7887 159.935 95.5926C160.724 95.4662 162.22 94.5595 162.467 93.4348C161.184 94.6292 161.041 94.9518 159.649 95.1741C158.258 95.3964 156.407 95.4313 155.913 95.5446V95.5403Z" fill="#F0997A"/>
<path d="M155.232 84.7168C155.232 84.7168 155.232 84.6165 155.197 84.6427C154.729 85.0219 154.447 85.5624 154.296 86.1465C154.114 86.8571 154.209 87.5589 154.335 88.2737C154.335 88.2825 154.348 88.2737 154.343 88.2694C154.274 87.6112 154.309 86.9137 154.452 86.2686C154.577 85.6975 154.846 85.157 155.232 84.7211V84.7168ZM155.232 85.5057C155.128 85.6975 155.041 85.8981 154.937 86.0899C154.889 86.1814 154.837 86.2686 154.781 86.3601C154.725 86.4517 154.686 86.5519 154.647 86.6565C154.638 86.6783 154.651 86.7437 154.686 86.7132C154.764 86.6391 154.833 86.565 154.889 86.4691C154.946 86.3776 154.998 86.2817 155.046 86.1858C155.145 85.9896 155.249 85.7934 155.314 85.5842C155.327 85.545 155.267 85.4491 155.232 85.5057ZM154.114 85.3183C153.914 85.4796 153.862 85.7455 153.836 85.9896C153.819 86.1465 153.814 86.3078 153.814 86.4647C153.814 86.6478 153.849 86.8353 153.871 87.014C153.871 87.0445 153.905 87.0314 153.905 87.0053C153.905 86.7132 153.936 86.4211 153.958 86.1335C153.975 85.885 154.01 85.6191 154.183 85.4273C154.222 85.3837 154.166 85.2704 154.114 85.314V85.3183Z" fill="#F0997A"/>
<path d="M154.785 93.182C154.742 92.9946 154.733 92.7984 154.738 92.611C154.738 92.5761 154.681 92.5194 154.668 92.5761C154.621 92.7723 154.629 92.9684 154.668 93.1646C154.712 93.3782 154.798 93.5918 154.946 93.7574C154.98 93.7966 154.993 93.7225 154.98 93.6964C154.902 93.5307 154.829 93.3607 154.785 93.182ZM156.142 93.1864C156.129 93.1079 156.112 93.0251 156.094 92.9466C156.055 92.781 156.003 92.6241 155.943 92.4628C155.934 92.441 155.912 92.4061 155.882 92.4192C155.852 92.4279 155.856 92.4671 155.86 92.4933C155.908 92.6415 155.943 92.7897 155.973 92.9423C155.99 93.0207 156.008 93.0992 156.016 93.1777C156.029 93.2605 156.042 93.352 156.077 93.4305C156.09 93.4654 156.138 93.4741 156.151 93.4305C156.173 93.3564 156.151 93.2561 156.138 93.182L156.142 93.1864ZM155.466 93.1253C155.431 92.9248 155.388 92.72 155.336 92.5238C155.288 92.3364 155.245 92.1402 155.163 91.9658C155.141 91.9179 155.054 91.8917 155.063 91.9658C155.084 92.162 155.163 92.3538 155.206 92.5456C155.254 92.7461 155.293 92.951 155.327 93.1515C155.392 93.5569 155.41 93.971 155.492 94.372C155.501 94.4069 155.544 94.4331 155.553 94.3851C155.592 94.1715 155.566 93.9492 155.548 93.7356C155.531 93.5307 155.505 93.3259 155.466 93.121V93.1253Z" fill="#F0997A"/>
<path d="M156.814 98.7485C156.754 98.4478 156.701 98.099 156.489 97.8637C156.441 97.807 156.407 97.8811 156.42 97.9247C156.463 98.0685 156.528 98.1993 156.563 98.3475C156.597 98.487 156.623 98.6265 156.649 98.7703C156.71 99.106 156.758 99.4678 156.897 99.7816C156.914 99.8209 156.962 99.8209 156.966 99.7773C156.979 99.616 156.949 99.4416 156.918 99.2847C156.884 99.106 156.853 98.9316 156.814 98.7529V98.7485ZM156.272 99.167C156.238 99.1234 156.207 99.0798 156.173 99.0362C156.112 98.9534 156.064 98.8619 156.03 98.7616C156.025 98.7485 156.008 98.7267 155.991 98.7355C155.973 98.7442 155.969 98.7703 155.973 98.7834C156.004 98.8967 156.051 99.0144 156.116 99.1147C156.181 99.2106 156.264 99.3065 156.368 99.3588C156.398 99.3719 156.394 99.3109 156.385 99.2978C156.35 99.2542 156.307 99.2106 156.272 99.167ZM157.36 98.6788C157.326 98.487 157.265 98.2996 157.204 98.1165C157.191 98.0816 157.157 98.0424 157.118 98.0467C157.074 98.0555 157.074 98.1034 157.083 98.1339C157.135 98.3126 157.165 98.4957 157.196 98.6788C157.209 98.766 157.222 98.8575 157.23 98.9491C157.235 99.0014 157.248 99.0493 157.256 99.0973C157.269 99.1496 157.274 99.1975 157.3 99.2455C157.313 99.2673 157.352 99.2934 157.378 99.2673C157.412 99.228 157.404 99.1844 157.408 99.1321C157.408 99.0798 157.417 99.0319 157.408 98.9796C157.395 98.8793 157.382 98.7791 157.36 98.6788Z" fill="#F0997A"/>
<path d="M155.514 79.9741C155.102 80.7631 154.968 81.6785 155.089 82.559C155.089 82.5895 155.128 82.6026 155.128 82.5634C155.158 81.7046 155.341 80.8764 155.631 80.07C155.653 80.0046 155.557 79.8913 155.514 79.9741ZM154.716 80.7326C154.647 80.8503 154.608 81.0028 154.578 81.138C154.547 81.2775 154.521 81.4344 154.547 81.5739C154.552 81.6 154.595 81.6392 154.608 81.5957C154.625 81.5303 154.625 81.4649 154.634 81.3995C154.643 81.3298 154.651 81.2644 154.664 81.1946C154.677 81.1292 154.695 81.0639 154.716 81.0028C154.738 80.9374 154.764 80.8721 154.786 80.8067C154.794 80.7805 154.786 80.75 154.768 80.7326C154.755 80.7195 154.729 80.7108 154.716 80.7326ZM156.03 80.8721C155.999 80.859 155.96 80.8721 155.96 80.9069C155.952 81.0682 155.917 81.2208 155.865 81.3733C155.852 81.4082 155.839 81.4431 155.826 81.478C155.813 81.5128 155.791 81.5521 155.778 81.5869C155.765 81.6262 155.752 81.661 155.735 81.6959C155.713 81.7352 155.696 81.77 155.679 81.8136C155.67 81.8354 155.692 81.9139 155.726 81.8877C155.757 81.8616 155.778 81.831 155.804 81.8005C155.83 81.7657 155.861 81.7264 155.887 81.6916C155.934 81.6262 155.969 81.539 155.995 81.4605C156.047 81.3036 156.077 81.138 156.082 80.968C156.082 80.9287 156.069 80.8851 156.03 80.8677V80.8721Z" fill="#F0997A"/>
<path d="M171.726 86.1073C171.392 85.5929 170.989 85.1178 170.616 84.6295C170.287 84.198 169.884 83.7577 169.394 83.5093C169.03 83.3218 168.627 83.2259 168.215 83.2041C167.738 83.178 167.266 83.287 166.802 83.3872C166.741 83.4003 166.672 83.4177 166.641 83.47C166.784 83.5136 166.941 83.518 167.088 83.5267C167.322 83.5354 167.552 83.5441 167.786 83.5529C168.28 83.5703 168.822 83.6444 169.242 83.9277C169.663 84.2067 169.971 84.6339 170.322 84.9913C170.746 85.4229 171.158 85.8806 171.605 86.286C171.739 86.408 171.791 86.2075 171.726 86.1073ZM168.427 88.1516C168.215 87.9816 167.959 87.864 167.695 87.7986C167.136 87.6591 166.55 87.7332 165.983 87.8334C165.896 87.8509 165.779 87.9119 165.818 87.9947C166.576 88.1429 167.435 88.1081 168.111 88.5352C168.345 88.6835 168.527 88.9145 168.791 89.0104C169.021 89.0932 168.909 88.7924 168.87 88.7096C168.8 88.557 168.705 88.4219 168.588 88.3042C168.536 88.2519 168.484 88.204 168.423 88.156L168.427 88.1516ZM167.348 93.814C167.101 93.6528 166.767 93.5307 166.663 93.5133C166.273 93.4479 165.874 93.5264 165.501 93.6571C165.445 93.6746 165.38 93.7399 165.423 93.7792C165.436 93.7879 165.449 93.7922 165.467 93.7966C165.97 93.8925 166.537 93.8751 167.006 94.093C167.127 94.1497 167.244 94.2238 167.365 94.2848C167.439 94.3197 167.539 94.3502 167.591 94.2848C167.716 94.1279 167.565 93.9579 167.348 93.814Z" fill="#F0997A"/>
<path d="M146.35 85.157C147.065 85.5275 147.23 86.3993 147.156 86.8439C147.091 87.2406 146.987 87.5545 146.814 87.8421C146.411 88.5178 145.739 87.9163 145.804 87.0532C145.986 86.2729 146.09 86.0506 146.346 85.157H146.35Z" fill="#FFBDA7"/>
<path opacity="0.6" d="M146.35 85.157C147.065 85.5275 147.23 86.3993 147.156 86.8439C147.091 87.2406 146.987 87.5545 146.814 87.8421C146.411 88.5178 145.739 87.9163 145.804 87.0532C145.986 86.2729 146.09 86.0506 146.346 85.157H146.35Z" fill="#BA68C8"/>
<path d="M147.169 86.4996C146.862 86.2685 146.541 85.8937 146.281 85.4011C146.302 85.327 146.328 85.2442 146.35 85.157C146.909 85.4447 147.13 86.0419 147.165 86.4996H147.169Z" fill="#BA68C8"/>
<path d="M152.185 99.459C151.942 100.13 152.102 100.549 152.258 100.972C151.972 101.312 151.569 101.673 151.244 101.761C150.737 101.904 150.325 101.107 151.019 100.444C151.795 99.6987 152.185 99.4546 152.185 99.4546V99.459Z" fill="#FFBDA7"/>
<path opacity="0.6" d="M152.185 99.459C151.942 100.13 152.102 100.549 152.258 100.972C151.972 101.312 151.569 101.673 151.244 101.761C150.737 101.904 150.325 101.107 151.019 100.444C151.795 99.6987 152.185 99.4546 152.185 99.4546V99.459Z" fill="#BA68C8"/>
<path d="M152.184 99.459C151.725 99.751 151.252 100.658 152.258 100.972C152.102 100.544 151.937 100.13 152.184 99.459Z" fill="#BA68C8"/>
<path d="M174.136 106.468C174.479 108.417 175.302 109.868 176.512 110.57C177.023 110.862 177.582 111.015 178.168 111.015C178.896 111.015 179.667 110.792 180.435 110.343C181.05 109.986 181.644 109.498 182.199 108.909C184.687 106.303 186.499 101.695 186.499 97.5061C186.499 96.1025 186.295 94.8602 185.923 93.8358C185.489 92.6501 184.817 91.7565 183.946 91.2509C183.083 90.7496 181.978 90.6624 180.881 91.1288C181.202 91.3468 181.466 91.4994 181.8 91.6999C182.052 91.6388 182.186 91.6301 182.277 91.6301C182.728 91.6301 183.144 91.7435 183.53 91.9658C183.981 92.2273 184.366 92.6283 184.683 93.1558C185.316 94.1976 185.671 95.7189 185.671 97.5061C185.671 101.573 183.907 106.028 181.51 108.443C181.037 108.922 180.534 109.323 180.019 109.624C178.874 110.291 177.803 110.37 176.919 109.855C175.987 109.319 175.32 108.155 174.994 106.595C174.717 106.56 174.431 106.525 174.132 106.473L174.136 106.468Z" fill="#BA68C8"/>
<path d="M38.9499 81.7874C38.2086 82.0272 35.2696 82.5938 35.1482 81.3777C35.1136 81.0202 35.3 80.6802 35.482 80.3707C36.492 78.6576 37.6798 76.9053 39.4961 76.1119C41.3774 75.2881 43.6402 75.0919 45.6472 74.7345C47.9187 74.3335 50.1901 73.8932 52.3922 73.2001C52.6393 73.1216 52.9037 73.0388 53.1551 73.1042C53.6667 73.2393 53.8357 73.8888 53.814 74.4206C53.749 75.955 52.843 77.3586 51.6726 78.3438C51.0441 78.8756 50.3288 79.3071 49.5702 79.621C48.6079 80.022 47.6542 80.1223 46.6529 80.2966C45.5692 80.4884 44.5158 80.8371 43.4148 81.0028C43.055 81.0551 38.9456 81.6043 38.9456 81.7874H38.9499Z" fill="#AF6152"/>
<path d="M75.9869 66.7749C68.6437 72.8819 61.3005 78.9889 53.9573 85.1003C44.9235 77.7553 38.1482 69.5167 32.6689 59.2207C40.0122 53.1137 47.3554 47.0066 54.6986 40.8953C60.1778 51.1957 66.9532 59.4299 75.9869 66.7749Z" fill="#FAFAFA" stroke="#9C0D38" stroke-miterlimit="10"/>
<path d="M51.2131 62.8169C48.1441 65.3713 46.6096 66.6485 43.5405 69.1985C41.074 66.0164 39.9469 64.3338 37.9355 60.8291C41.0046 58.2747 42.5391 56.9975 45.6082 54.4475C47.6196 57.9522 48.7466 59.6348 51.2131 62.8212V62.8169Z" stroke="#37474F" stroke-miterlimit="10"/>
<path d="M61.0447 73.2089C57.9757 75.7633 56.4411 77.0405 53.3721 79.5905C50.3247 76.9446 48.8942 75.5192 46.2456 72.4853C49.3147 69.9309 50.8492 68.6537 53.9183 66.1036C56.5668 69.1375 57.9973 70.5629 61.0447 73.2089Z" stroke="#37474F" stroke-miterlimit="10"/>
<path d="M54.7378 50.8601C52.579 52.656 51.504 53.5496 49.3452 55.3455C49.1458 55.5112 48.8727 55.4632 48.7384 55.2453C48.721 55.2147 48.708 55.1973 48.6907 55.1668C48.552 54.9445 48.604 54.6306 48.8034 54.4693C50.9621 52.6734 52.0415 51.7798 54.1959 49.9839C54.3953 49.8182 54.6641 49.8662 54.8028 50.0885C54.8201 50.119 54.8331 50.1365 54.8505 50.167C54.9892 50.3893 54.9415 50.6988 54.7421 50.8644L54.7378 50.8601Z" fill="#E0E0E0"/>
<path d="M58.3357 51.2306C55.31 53.7457 53.7972 55.0055 50.7758 57.5207C50.5764 57.6863 50.2989 57.6427 50.1516 57.4291C50.1299 57.3986 50.1212 57.3855 50.0995 57.355C49.9565 57.1371 49.9998 56.8319 50.1949 56.6663C53.2206 54.1511 54.7335 52.8914 57.7549 50.3762C57.9543 50.2106 58.2274 50.2541 58.3747 50.4677C58.3964 50.4983 58.4051 50.5113 58.4268 50.5418C58.5698 50.7554 58.5308 51.0649 58.3314 51.2306H58.3357Z" fill="#E0E0E0"/>
<path d="M59.3585 52.6952C56.3328 55.2104 54.82 56.4701 51.7986 58.9853C51.5992 59.1509 51.3174 59.1117 51.1657 58.9025C51.144 58.872 51.1354 58.8589 51.1137 58.8284C50.962 58.6148 51.0053 58.3096 51.2004 58.144C54.2261 55.6288 55.739 54.3691 58.7603 51.8539C58.9597 51.6883 59.2372 51.7275 59.3889 51.9411C59.4106 51.9716 59.4192 51.9847 59.4409 52.0152C59.5926 52.2288 59.5536 52.5296 59.3542 52.6952H59.3585Z" fill="#E0E0E0"/>
<path d="M63.7974 62.4289C61.6387 64.2248 60.5636 65.1184 58.4049 66.9143C58.2055 67.08 57.902 67.0625 57.72 66.8707C57.6939 66.8446 57.6809 66.8315 57.6593 66.8054C57.4815 66.6179 57.4989 66.3302 57.694 66.1646C59.8527 64.3687 60.9277 63.4751 63.0865 61.6791C63.2859 61.5135 63.5893 61.5353 63.7671 61.7227C63.7931 61.7489 63.8061 61.762 63.8277 61.7881C64.0055 61.9755 63.9925 62.2632 63.7931 62.4245L63.7974 62.4289Z" fill="#E0E0E0"/>
<path d="M67.7982 62.4638C64.7725 64.9789 63.2597 66.2387 60.2383 68.7539C60.0389 68.9195 59.7268 68.9064 59.5447 68.7233C59.5187 68.6972 59.5057 68.6841 59.4797 68.658C59.2933 68.4749 59.3063 68.1959 59.5057 68.0303C62.5314 65.5151 64.0443 64.2553 67.0657 61.7402C67.2651 61.5745 67.5728 61.592 67.7592 61.775C67.7852 61.8012 67.7982 61.8143 67.8243 61.8404C68.0107 62.0235 68.002 62.3025 67.8026 62.4681L67.7982 62.4638Z" fill="#E0E0E0"/>
<path d="M69.0988 63.693C66.0731 66.2082 64.5602 67.468 61.5388 69.9831C61.3394 70.1488 61.0273 70.1401 60.8366 69.9613C60.8106 69.9352 60.7976 69.9221 60.7716 69.9003C60.5808 69.7216 60.5895 69.4426 60.7889 69.2813C63.8146 66.7662 65.3275 65.5064 68.3489 62.9912C68.5483 62.8256 68.8604 62.8387 69.0511 63.0174C69.0771 63.0435 69.0901 63.0566 69.1161 63.0784C69.3069 63.2571 69.3025 63.5318 69.1031 63.6974L69.0988 63.693Z" fill="#E0E0E0"/>
<path d="M55.5917 75.2358C52.9561 74.5993 51.6644 74.2593 49.1328 73.5488C49.3929 72.6247 49.5229 72.1626 49.796 71.2298C51.1052 71.6134 51.7641 71.8008 53.1035 72.167C53.3246 68.9064 53.485 67.2413 53.9141 63.8456C54.9025 63.9807 55.401 64.0461 56.4023 64.1769C55.8865 68.7277 55.7261 70.9465 55.5917 75.2358Z" fill="#9C0D38"/>
<path d="M0.512978 108.53C0.239883 114.751 3.87247 117.763 8.63646 115.282C9.02226 115.082 25.3342 107.885 26.8991 107.052C29.1966 105.832 30.9175 106.338 33.9606 105.697C37.0036 105.052 37.992 103.474 39.7562 102.07C40.6405 101.368 41.3384 101.05 42.1101 100.579C42.8816 100.104 43.7226 99.4764 44.1344 99.3326C45.4219 98.888 47.9707 99.799 49.7307 100.209C51.4906 100.623 53.8228 101.874 55.2923 101.861C57.1563 101.848 57.9495 100.614 57.2473 99.7598C56.532 98.8836 55.6347 98.33 55.6347 98.33C55.6347 98.33 56.415 97.6064 57.6244 96.3423C58.8382 95.0738 58.214 93.4915 58.214 93.4915C58.214 93.4915 59.1243 92.1358 59.7008 91.2248C60.2817 90.3181 60.1213 88.6006 59.7008 87.7288C59.2717 86.8526 56.506 84.708 56.506 84.708L57.8065 85.0785C59.2673 87.0052 60.9666 87.0793 61.8249 86.8091C62.6875 86.5388 62.5748 85.5188 62.1673 84.307C61.7598 83.0952 61.3784 81.1118 60.3207 80.5233C59.263 79.9348 57.9712 79.4902 55.6131 78.6097C53.2549 77.7292 52.0195 77.6725 50.7927 77.5417C49.5616 77.4066 44.7109 77.0404 40.996 77.1102C37.2854 77.1756 37.1987 77.7466 36.3621 78.7666C35.196 80.1964 34.2597 80.9549 30.9305 85.3749C29.1229 87.7768 25.2172 88.9058 20.6526 89.8386C18.6239 90.2527 14.5275 90.9763 10.8342 92.2317C10.4397 92.3668 10.0323 92.5412 9.61613 92.7548C4.86082 95.2482 0.786072 102.31 0.512978 108.53ZM53.4716 90.0653C52.8951 89.686 52.2492 89.4114 50.9878 89.2022C52.3706 89.1847 54.0612 89.3373 54.0612 89.3373L55.9468 91.0853L55.7561 91.4427C55.7561 91.4427 54.1956 90.5448 53.4673 90.0653H53.4716ZM47.9534 94.5725C49.0935 94.7774 52.1755 95.0694 52.5093 95.1305C52.8388 95.1959 54.3299 96.0328 54.3299 96.0328L54.0829 97.1574C54.0829 97.1574 53.5497 96.7172 52.1625 96.072C51.1395 95.5969 50.1555 95.1479 47.9577 94.5638L47.9534 94.5725Z" fill="#C8856A"/>
<path d="M0.512978 108.53C0.239883 114.751 3.87247 117.763 8.63646 115.282C9.02226 115.082 24.9268 107.92 26.561 107.222C29.0925 106.146 30.9218 106.333 33.9649 105.697C37.0079 105.052 37.9963 103.474 39.7606 102.07C40.6449 101.368 41.3428 101.05 42.1144 100.579C42.886 100.104 43.7269 99.4764 44.1388 99.3326C45.4262 98.888 47.9751 99.799 49.735 100.209C51.495 100.623 53.8271 101.874 55.2966 101.861C57.1606 101.848 57.9539 100.614 57.2516 99.7598C56.5364 98.8836 55.6391 98.33 55.6391 98.33C55.6391 98.33 56.4193 97.6064 57.6287 96.3423C58.8425 95.0738 58.2183 93.4915 58.2183 93.4915C58.2183 93.4915 59.1286 92.1358 59.7051 91.2248C60.286 90.3181 60.1256 88.6006 59.7051 87.7288C59.276 86.8526 56.5104 84.708 56.5104 84.708L57.8108 85.0785C59.2717 87.0052 60.9709 87.0793 61.8292 86.8091C62.6918 86.5388 62.5791 85.5188 62.1717 84.307C61.7642 83.0952 61.3827 81.1118 60.325 80.5233C59.2673 79.9348 57.9755 79.4902 55.6174 78.6097C53.2592 77.7292 52.0238 77.6725 50.7971 77.5417C49.566 77.4066 44.7153 77.0404 41.0003 77.1102C37.2897 77.1756 37.203 77.7466 36.3664 78.7666C35.2003 80.1964 34.264 80.9549 30.9348 85.3749C29.1272 87.7768 25.2215 88.9058 20.657 89.8386C18.6283 90.2527 14.5318 90.9763 10.8386 92.2317C10.4441 92.3668 10.0366 92.5412 9.62047 92.7548C4.86082 95.2482 0.786072 102.31 0.512978 108.53ZM53.4716 90.0653C52.8951 89.686 52.2492 89.4114 50.9878 89.2022C52.3706 89.1847 54.0612 89.3373 54.0612 89.3373L55.9468 91.0853L55.7561 91.4427C55.7561 91.4427 54.1956 90.5448 53.4673 90.0653H53.4716ZM47.9534 94.5725C49.0935 94.7774 52.1755 95.0694 52.5093 95.1305C52.8388 95.1959 54.3299 96.0328 54.3299 96.0328L54.0829 97.1574C54.0829 97.1574 53.5497 96.7172 52.1625 96.072C51.1395 95.5969 50.1555 95.1479 47.9577 94.5638L47.9534 94.5725Z" fill="#C8856A"/>
<path d="M27.5578 105.453C27.029 105.418 26.4914 105.418 25.9799 105.557C25.3514 105.732 24.7922 106.102 24.2763 106.503C23.0756 107.436 22.2867 107.959 20.8172 109.018C19.6944 109.825 18.9879 110.426 17.6094 111.224C21.6841 109.389 25.7719 107.558 26.5608 107.227C28.6068 106.355 30.1934 106.311 32.3305 105.989C30.9043 105.906 28.9926 105.549 27.5578 105.453Z" fill="#AF6152"/>
<path d="M44.1083 81.8529C44.6459 81.9924 45.2137 81.9662 45.7686 81.9924C47.4332 82.0098 49.1021 81.9401 50.758 81.879C51.3128 81.8485 51.8373 81.8703 52.3402 82.0577C53.8747 82.6506 56.506 84.7124 56.506 84.7124L57.8064 85.0829C58.9291 86.565 60.1906 86.9486 61.1052 86.9268C60.6327 86.6827 60.2643 86.2119 59.9825 85.606C59.523 84.6165 60.2426 83.9539 60.3293 83.8537C60.416 83.7534 59.2803 84.3768 58.1575 84.2198C57.3036 84.1021 55.7907 83.6401 54.72 83.1519C54.0178 82.5983 53.2722 82.1101 52.4442 81.7657C51.9067 81.5477 51.2955 81.5259 50.745 81.5521C49.0761 81.6131 47.4245 81.7483 45.7599 81.8354C45.2094 81.8616 44.6502 81.9183 44.104 81.8572L44.1083 81.8529ZM55.7604 91.4428C55.7604 91.4428 57.9105 92.733 58.2182 93.4872C58.0665 92.3015 57.1909 91.8176 56.662 91.0243C56.519 90.8063 55.1015 89.2327 54.2822 88.6573C53.4629 88.0819 52.2188 88.4132 50.4805 88.4394C48.7379 88.4655 47.1124 87.9294 45.8596 87.3758C46.6876 88.2694 49.5876 88.9058 50.9921 89.2066C51.9804 89.2022 53.0078 89.2502 54.0655 89.3417L55.9511 91.0897L55.7604 91.4471V91.4428ZM48.2524 94.141C46.8133 93.9143 46.6659 93.5787 45.3394 92.3451C45.5909 93.509 47.1427 94.4461 47.9577 94.5769C49.0977 94.7818 52.1798 95.0738 52.5136 95.1349C52.843 95.2003 54.3342 96.0416 54.3342 96.0416C54.1175 96.5428 54.0351 96.9177 54.0828 97.1705L55.639 98.3344C55.639 98.3344 56.3673 97.6544 57.5117 96.4687C57.5117 96.4687 56.0681 97.2882 55.3789 96.9526C54.694 96.6169 55.1405 95.9544 54.5726 95.6231C54.0048 95.2918 52.6263 94.6423 52.1191 94.529C51.6119 94.4156 49.6959 94.3764 48.2568 94.1454L48.2524 94.141Z" fill="#AF6152"/>
<path d="M53.6236 84.9259C53.771 85.5972 53.8057 86.3165 53.7363 86.9965C53.7363 87.0052 53.745 87.0139 53.7493 87.0008C53.8794 86.2641 53.9791 85.5362 53.7883 84.7995C53.6323 84.198 53.3418 83.64 52.8563 83.2433C52.826 83.2172 52.8 83.3 52.8217 83.3218C53.2205 83.7751 53.4979 84.3331 53.6279 84.9216L53.6236 84.9259ZM52.735 84.2198C52.8043 84.4377 52.9084 84.6426 53.0124 84.8431C53.0644 84.9434 53.1164 85.0393 53.1728 85.1352C53.2291 85.2311 53.3028 85.3095 53.3809 85.3836C53.4155 85.4141 53.4285 85.3488 53.4199 85.327C53.3809 85.2223 53.3418 85.1177 53.2812 85.0218C53.2248 84.9303 53.1728 84.8387 53.1208 84.7428C53.0124 84.5467 52.9214 84.3375 52.813 84.1413C52.7783 84.0803 52.7133 84.1805 52.7263 84.2198H52.735ZM53.9054 84.0585C54.0831 84.259 54.1178 84.5336 54.1395 84.7908C54.1611 85.0916 54.1958 85.3923 54.1915 85.6931C54.1915 85.7193 54.2218 85.7323 54.2262 85.7018C54.2478 85.5144 54.2825 85.3226 54.2825 85.1308C54.2825 84.9652 54.2825 84.8039 54.2608 84.6382C54.2348 84.3854 54.1785 84.1151 53.9747 83.9451C53.9184 83.9015 53.8664 84.0192 53.901 84.0628L53.9054 84.0585Z" fill="#AF6152"/>
<path d="M53.0731 92.6154C53.0601 92.6415 53.0731 92.72 53.1077 92.6764C53.2595 92.5064 53.3505 92.2884 53.3938 92.0661C53.4372 91.8613 53.4459 91.6607 53.3938 91.4559C53.3808 91.3992 53.3201 91.4559 53.3201 91.4907C53.3201 91.6869 53.3201 91.8918 53.2725 92.0836C53.2291 92.271 53.1511 92.441 53.0687 92.6154H53.0731ZM51.8593 92.3495C51.8723 92.3931 51.92 92.38 51.9373 92.3495C51.972 92.271 51.985 92.1751 51.998 92.0879C52.011 92.0051 52.0284 91.9223 52.0457 91.8438C52.0804 91.6869 52.1151 91.5343 52.1627 91.3818C52.1714 91.36 52.1714 91.3164 52.1411 91.3077C52.1107 91.2989 52.0891 91.3294 52.0804 91.3556C52.0197 91.5169 51.9633 91.6825 51.9243 91.8525C51.907 91.9354 51.8897 92.0182 51.8723 92.101C51.8593 92.1795 51.8376 92.2797 51.8593 92.3582V92.3495ZM52.4879 92.6633C52.4662 92.8856 52.4445 93.1167 52.4835 93.3346C52.4922 93.3869 52.5399 93.3564 52.5485 93.3215C52.6352 92.9074 52.6482 92.4759 52.7176 92.0574C52.7523 91.8482 52.7956 91.6346 52.8433 91.4297C52.891 91.2292 52.969 91.033 52.9907 90.8282C52.9994 90.7453 52.9127 90.7759 52.8867 90.8282C52.8 91.0069 52.7566 91.2118 52.7089 91.4035C52.6569 91.6084 52.6092 91.8177 52.5746 92.0269C52.5355 92.2361 52.5095 92.4497 52.4922 92.6633H52.4879Z" fill="#AF6152"/>
<path d="M51.0746 98.3911C51.0442 98.5567 51.0096 98.7354 51.0226 98.9011C51.0226 98.949 51.0789 98.9447 51.0963 98.9054C51.235 98.5785 51.287 98.208 51.352 97.8593C51.378 97.7154 51.404 97.5672 51.4387 97.4233C51.4777 97.2751 51.5428 97.1357 51.5861 96.9874C51.5991 96.9395 51.5688 96.8654 51.5167 96.9221C51.3 97.1662 51.2436 97.528 51.183 97.8375C51.1439 98.0205 51.1093 98.2036 51.0746 98.3867V98.3911ZM51.6294 98.4128C51.6294 98.4128 51.6164 98.4913 51.6468 98.4739C51.7552 98.4172 51.8419 98.3213 51.9069 98.221C51.9762 98.1164 52.0196 97.9987 52.0543 97.881C52.0586 97.8636 52.0543 97.8375 52.0369 97.8287C52.0196 97.82 52.0022 97.8418 51.9979 97.8549C51.9632 97.9551 51.9112 98.051 51.8505 98.1382C51.8158 98.1862 51.7812 98.2298 51.7508 98.2734C51.7161 98.3213 51.6728 98.3649 51.6381 98.4085L51.6294 98.4128ZM50.5718 98.0816C50.5674 98.1339 50.5718 98.1862 50.5718 98.2385C50.5718 98.2908 50.5718 98.3387 50.6021 98.378C50.6238 98.4041 50.6671 98.378 50.6801 98.3562C50.7105 98.3082 50.7148 98.2603 50.7278 98.2036C50.7408 98.1513 50.7495 98.1034 50.7581 98.051C50.7668 97.9595 50.7798 97.8636 50.7928 97.7721C50.8232 97.5846 50.8578 97.3928 50.9099 97.2098C50.9185 97.1749 50.9185 97.1269 50.8752 97.1182C50.8318 97.1095 50.7972 97.1531 50.7842 97.188C50.7191 97.3754 50.6584 97.5715 50.6194 97.7721C50.6021 97.8767 50.5848 97.9769 50.5718 98.0816Z" fill="#AF6152"/>
<path d="M52.4054 78.5182C52.7045 79.3508 52.8909 80.2095 52.9256 81.0987C52.9256 81.138 52.9646 81.1205 52.9689 81.0944C53.0946 80.1877 52.9603 79.2374 52.5311 78.4223C52.4834 78.3351 52.3837 78.4528 52.4097 78.5225L52.4054 78.5182ZM53.2984 79.2026C53.2984 79.2026 53.2724 79.2549 53.281 79.2767C53.3027 79.3464 53.3287 79.4118 53.3504 79.4772C53.3721 79.5426 53.3894 79.6079 53.4024 79.6777C53.4154 79.7474 53.4241 79.8172 53.4371 79.8913C53.4458 79.961 53.4458 80.0308 53.4631 80.0962C53.4761 80.1397 53.5194 80.0962 53.5238 80.0744C53.5498 79.9262 53.5238 79.7649 53.4934 79.621C53.4631 79.4815 53.4241 79.329 53.3504 79.2026C53.3374 79.1808 53.3114 79.1895 53.2984 79.2026ZM51.9416 79.451C51.9459 79.6254 51.9806 79.7954 52.0326 79.961C52.0586 80.0395 52.0976 80.131 52.1453 80.1964C52.1713 80.2356 52.2017 80.2705 52.2277 80.3097C52.2537 80.3446 52.2753 80.3751 52.31 80.4013C52.3447 80.4318 52.3664 80.349 52.3577 80.3272C52.3404 80.2836 52.3187 80.2487 52.297 80.2051C52.2797 80.1659 52.2667 80.131 52.2537 80.0918C52.2407 80.0526 52.219 80.0177 52.206 79.9785C52.193 79.9436 52.18 79.9044 52.167 79.8695C52.1106 79.7126 52.0759 79.5513 52.0673 79.3856C52.0673 79.3464 52.0283 79.3333 51.9936 79.3464C51.9546 79.3638 51.9372 79.4118 51.9416 79.451Z" fill="#AF6152"/>
<path d="M35.8809 84.9477C36.3447 84.5249 36.7696 84.0541 37.2074 83.6052C37.5715 83.2346 37.8879 82.7944 38.3214 82.5023C38.7592 82.2103 39.3184 82.1362 39.83 82.1144C40.0684 82.1056 40.3111 82.0969 40.5495 82.0839C40.7056 82.0795 40.8616 82.0708 41.0134 82.0272C40.9787 81.9705 40.9093 81.9531 40.8443 81.94C40.3631 81.8397 39.8733 81.7221 39.3835 81.7482C38.963 81.77 38.5425 81.8703 38.1654 82.0621C37.6582 82.3192 37.2421 82.7769 36.8996 83.2216C36.5138 83.7272 36.0977 84.2198 35.7509 84.7516C35.6815 84.8562 35.7379 85.0611 35.8766 84.939L35.8809 84.9477ZM38.9977 87.027C38.8763 87.1491 38.7766 87.2929 38.7072 87.4498C38.6682 87.537 38.5512 87.8509 38.7896 87.7637C39.0627 87.6634 39.2491 87.428 39.4918 87.2755C40.1897 86.8352 41.0784 86.8701 41.863 86.7175C41.902 86.6347 41.785 86.5693 41.6939 86.5519C41.1087 86.4473 40.5019 86.3732 39.921 86.5126C39.6479 86.578 39.3878 86.7044 39.1624 86.8788C39.1017 86.9267 39.0453 86.9747 38.9933 87.0314L38.9977 87.027ZM40.0337 93.2168C40.0857 93.2822 40.1941 93.2561 40.2678 93.2168C40.3935 93.1515 40.5149 93.0774 40.6406 93.0163C41.1261 92.7897 41.7156 92.8071 42.2314 92.7068C42.2488 92.7068 42.2618 92.7025 42.2748 92.6894C42.3181 92.6502 42.2531 92.5848 42.1968 92.563C41.811 92.4279 41.3948 92.3494 40.996 92.4148C40.8877 92.4322 40.5452 92.5586 40.2894 92.7286C40.064 92.8768 39.908 93.0556 40.038 93.2168H40.0337Z" fill="#AF6152"/>
<path d="M62.0026 83.7839C61.2657 84.1675 61.0923 85.0699 61.166 85.5276C61.231 85.9373 61.374 86.1596 61.5518 86.4604C61.9722 87.1578 62.6311 86.6347 62.5618 85.7455C62.371 84.9391 62.2627 84.7081 61.9982 83.7839H62.0026Z" fill="#C8856A"/>
<path opacity="0.2" d="M62.0026 83.7839C61.2657 84.1675 61.0923 85.0699 61.166 85.5276C61.231 85.9373 61.374 86.1596 61.5518 86.4604C61.9722 87.1578 62.6311 86.6347 62.5618 85.7455C62.371 84.9391 62.2627 84.7081 61.9982 83.7839H62.0026Z" fill="white"/>
<path d="M61.1577 85.1701C61.4742 84.9304 61.8079 84.5424 62.0767 84.0368C62.055 83.9583 62.029 83.8755 62.003 83.7839C61.4265 84.0847 61.1967 84.6993 61.1577 85.1701Z" fill="#AF6152"/>
<path d="M55.9687 98.5785C56.2201 99.2759 56.0553 99.7031 55.8906 100.143C56.1854 100.496 56.6059 100.867 56.9397 100.963C57.4642 101.111 57.889 100.287 57.1737 99.6029C56.3675 98.8313 55.9687 98.5785 55.9687 98.5785Z" fill="#C8856A"/>
<path opacity="0.2" d="M55.9687 98.5785C56.2201 99.2759 56.0553 99.7031 55.8906 100.143C56.1854 100.496 56.6059 100.867 56.9397 100.963C57.4642 101.111 57.889 100.287 57.1737 99.6029C56.3675 98.8313 55.9687 98.5785 55.9687 98.5785Z" fill="white"/>
<path d="M55.9687 98.5785C56.4411 98.8836 56.931 99.8165 55.8906 100.143C56.0553 99.7031 56.2201 99.2716 55.9687 98.5785Z" fill="#AF6152"/>
<path d="M82.9358 11.1055L85.4716 6.65057L75.9567 1.09279C75.9567 1.09279 75.9523 1.09279 75.948 1.08843H75.9393V1.08407C74.3441 0.168671 72.1464 0.303801 69.7188 1.71177C64.8465 4.54079 60.8975 11.4194 60.8975 17.0774C60.8975 19.9108 61.8901 21.9029 63.4897 22.827L73.0827 28.4283L75.6879 23.8514C79.4202 20.9569 82.3592 15.8002 82.9358 11.1142V11.1055Z" fill="#455A64"/>
<path d="M79.2945 7.30438C74.4222 10.1334 70.4731 17.012 70.4731 22.67C70.4731 28.328 74.4222 30.6209 79.2945 27.7919C84.1669 24.9629 88.1159 18.0843 88.1159 12.4263C88.1159 6.76821 84.1669 4.47536 79.2945 7.30438Z" fill="#263238"/>
<path d="M88.2545 13.9695L90.656 9.74554L85.905 6.98626C85.905 6.98626 85.9007 6.98626 85.8964 6.98191H85.8877V6.97755C84.3748 6.1101 82.2941 6.23651 79.9923 7.57474C75.3757 10.2555 71.6348 16.7723 71.6348 22.1339C71.6348 24.8191 72.5754 26.7066 74.0926 27.5827L78.9173 30.3856L81.3881 26.0484C84.9254 23.3065 87.7127 18.42 88.2589 13.9782L88.2545 13.9695Z" fill="#F5F5F5"/>
<path d="M71.9035 19.5359C71.7301 20.4164 71.6348 21.2882 71.6348 22.1339C71.6348 24.819 72.5754 26.7065 74.0926 27.5827L78.9173 30.3855L81.3881 26.0483C81.6266 25.8609 81.865 25.6647 82.0947 25.4598L71.9035 19.5446V19.5359Z" fill="#EBEBEB"/>
<path d="M84.8038 10.3645C80.1873 13.0453 76.4463 19.562 76.4463 24.9237C76.4463 30.2853 80.1873 32.4561 84.8038 29.7753C89.4204 27.0945 93.1614 20.5777 93.1614 15.2161C93.1614 9.85445 89.4204 7.68364 84.8038 10.3645Z" fill="#E0E0E0"/>
<path d="M115.816 35.2764C116.54 37.3644 115.842 38.2929 115.135 39.0383L110.766 42.5124C110.766 42.5124 103.366 39.2213 101.064 38.9772C100.08 38.8726 97.9302 38.6329 97.9908 40.1673C98.0082 40.5901 98.1989 40.9911 98.3983 41.3616L91.2849 44.3563C89.4686 42.3642 89.0134 41.8498 87.4485 40.0583C85.4242 37.7349 85.3418 36.6103 84.6092 34.0123C84.1714 32.4648 83.7206 31.3707 83.2004 30.5338C82.4505 29.3002 81.5618 28.6202 80.4131 27.8835C79.299 27.1686 77.9682 26.3665 76.4554 25.4773C76.4467 25.3029 76.4424 25.1155 76.4424 24.9324C76.4424 19.5708 80.1877 13.0497 84.8043 10.3688C85.6279 9.88935 86.4255 9.56678 87.1798 9.38806C89.2778 10.953 97.0892 16.6677 99.9935 18.4069C101.983 19.6013 106.838 22.0031 108.798 22.7049C111.173 23.5549 112.07 23.5942 113.115 26.0614C114.168 28.5417 115.165 30.233 116.015 31.7761C116.86 33.3148 116.293 34.7097 115.816 35.2808V35.2764Z" fill="#FFA8A7"/>
<path d="M110.601 25.9393C110.414 25.6821 110.167 25.499 109.907 25.3203C109.764 25.2244 109.626 25.1242 109.482 25.0326C109.313 24.9236 109.149 24.8016 108.971 24.7144C108.936 24.697 108.941 24.758 108.958 24.7711C109.435 25.2549 110.076 25.5339 110.471 26.1049C110.636 26.3447 110.753 26.6106 110.874 26.8721C111.03 27.2078 111.186 27.5347 111.351 27.8616C111.364 27.8878 111.381 27.8616 111.377 27.8398C111.203 27.1816 111.008 26.4973 110.601 25.9393Z" fill="#F28F8F"/>
<path d="M115.811 35.2721C115.915 35.1457 116.024 34.98 116.123 34.7839C115.625 33.729 114.441 31.8502 113.488 29.4963C114.155 31.3707 114.715 32.3123 115.811 35.2721Z" fill="#F28F8F"/>
<path d="M112.187 25.8827C112.166 25.7345 112.131 25.5907 112.075 25.4468C111.975 25.194 111.849 24.9542 111.663 24.7581C111.459 24.5314 111.195 24.3876 110.93 24.2481C110.636 24.0999 110.332 23.9647 110.011 23.8906C110.007 23.8906 110.003 23.9037 110.011 23.9037C110.28 24.0606 110.558 24.2001 110.831 24.3527C111.078 24.4922 111.329 24.6447 111.516 24.8671C111.849 25.2637 111.971 25.7912 112.196 26.2489C112.209 26.275 112.235 26.2707 112.235 26.2401C112.235 26.1181 112.209 26.0004 112.192 25.8783L112.187 25.8827Z" fill="#F28F8F"/>
<path d="M115.69 38.3496C115.608 37.2511 115.04 36.5406 114.442 35.1762C113.696 33.4631 112.04 30.1851 111.481 28.2671C111.672 29.9889 112.816 35.9564 113.648 40.2152L115.131 39.0383C115.326 38.8334 115.521 38.6111 115.686 38.3539L115.69 38.3496Z" fill="#F28F8F"/>
<path d="M98.2421 41.1262C98.1727 40.9039 98.0427 40.6947 97.9343 40.4855C97.8259 40.2806 97.7349 40.0626 97.6439 39.849C97.4748 39.4436 97.3231 39.0382 97.206 38.6154C97.089 38.1882 97.011 37.748 96.998 37.3077C96.9893 37.0898 96.998 36.8762 97.011 36.6582C97.0196 36.5449 97.037 36.4315 97.05 36.3182C97.063 36.231 97.0847 36.1395 97.0933 36.0523C97.0977 35.9869 97.0933 35.9215 97.1063 35.8561C97.1107 35.8169 97.0413 35.7254 97.011 35.7864C96.9633 35.8867 96.9113 35.9826 96.8853 36.0915C96.8593 36.1874 96.8376 36.2833 96.8246 36.3792C96.7942 36.571 96.7726 36.7628 96.7682 36.9546C96.7596 37.3121 96.7856 37.6739 96.8463 38.0313C96.9633 38.7375 97.2147 39.4131 97.5398 40.0452C97.6352 40.2283 97.7392 40.407 97.8389 40.5857C97.9516 40.7819 98.0687 40.9911 98.2204 41.1567C98.2377 41.1785 98.2507 41.1437 98.2464 41.1262H98.2421Z" fill="#F28F8F"/>
<path d="M111.789 39.7575L107.311 31.2443C107.311 31.2443 102.733 32.5651 100.566 33.7725C98.3983 34.98 97.3753 39.1646 98.2119 41.1524L98.2986 41.1698C98.1339 40.8472 97.9995 40.5116 97.9822 40.1541C97.9215 38.6241 100.072 38.8595 101.056 38.9641C103.362 39.2082 110.757 42.4993 110.757 42.4993L111.845 41.6362L111.784 39.7488L111.789 39.7575Z" fill="#F28F8F"/>
<path d="M108.273 24.4268C110.869 25.5776 111.177 27.0117 111.632 28.8687C112.092 30.7256 113.847 34.6793 114.537 36.4665C115.226 38.2537 115.378 38.7114 114.688 41.1307C113.999 43.5499 112.048 48.2882 112.048 48.2882C112.048 48.2882 106.205 29.6925 105.824 27.7876C105.442 25.8827 105.672 23.7337 108.268 24.4268H108.273Z" fill="#FFA8A7"/>
<path d="M114.107 39.884C114.107 39.884 114.099 39.9015 114.103 39.9146C114.185 39.9407 114.311 39.884 114.393 39.871C114.498 39.8492 114.602 39.8317 114.71 39.8143C114.81 39.7969 114.918 39.7925 115.022 39.7838C115.035 39.714 115.048 39.6487 115.057 39.5833C114.792 39.6138 114.528 39.6748 114.281 39.7663C114.216 39.7925 114.142 39.823 114.107 39.884ZM114.094 38.6199C114.359 38.5284 114.619 38.4412 114.896 38.4063C114.97 38.3976 115.039 38.3932 115.113 38.3889C115.104 38.3191 115.096 38.245 115.083 38.1753C115.005 38.1797 114.927 38.1884 114.849 38.1971C114.558 38.2363 114.259 38.3191 114.008 38.4717C113.925 38.524 114.016 38.6417 114.094 38.6156V38.6199ZM114.966 38.8989C114.801 38.9033 114.632 38.925 114.472 38.9512C114.146 39.0079 113.8 39.1038 113.514 39.2781C113.44 39.3217 113.535 39.4176 113.6 39.3958C113.886 39.2956 114.159 39.1953 114.459 39.1386C114.602 39.1125 114.745 39.095 114.888 39.0863C114.961 39.0863 115.044 39.0863 115.122 39.0863C115.126 39.0209 115.13 38.9599 115.13 38.8945C115.074 38.8945 115.018 38.8945 114.966 38.8945V38.8989Z" fill="#F28F8F"/>
<path d="M112.413 36.0436C111.659 34.6269 110.302 31.5495 109.647 29.5966L107.311 28.8687L106.539 30.3682C108.186 35.9826 112.053 48.2925 112.053 48.2925C112.053 48.2925 112.343 47.5907 112.738 46.5882C112.738 46.5882 113.258 42.2378 113.496 40.2937C113.731 38.3452 113.167 37.4647 112.413 36.048V36.0436Z" fill="#F28F8F"/>
<path d="M103.994 46.7233C103.851 46.623 103.704 46.5271 103.565 46.4225C101.632 44.9971 99.5729 43.5237 98.3981 41.3573L91.2847 44.3476C93.0966 46.344 94.0026 47.0982 95.1557 48.1487C96.3087 49.1992 99.8113 50.6421 102.1 51.7972C104.363 52.9349 105.334 53.519 105.906 53.1965C106.552 52.8303 107.376 49.0336 103.994 46.7233Z" fill="#FFA8A7"/>
<path d="M95.78 48.6195C95.806 48.5366 95.8277 48.4538 95.8581 48.3754C95.9187 48.2054 95.9924 48.0441 96.0705 47.8828C96.1485 47.7259 96.2699 47.5689 96.3132 47.3946C96.3219 47.3553 96.2655 47.2856 96.2265 47.3161C96.0705 47.4382 95.9664 47.63 95.8754 47.8C95.7757 47.983 95.689 48.1792 95.6196 48.3754C95.6066 48.4102 95.598 48.4495 95.585 48.4843C95.6456 48.5279 95.7107 48.5715 95.78 48.6151V48.6195Z" fill="#F28F8F"/>
<path d="M96.5257 48.9987C96.6037 48.7154 96.699 48.4408 96.8291 48.1792C96.9375 47.9569 97.0718 47.7477 97.2279 47.5559C97.3363 47.4208 97.4576 47.2987 97.592 47.1854C97.7004 47.0982 97.8131 47.0197 97.9128 46.9195C97.9388 46.8933 97.8998 46.8236 97.8651 46.8323C97.5877 46.902 97.3449 47.0982 97.1455 47.2943C96.9331 47.5036 96.7597 47.7477 96.6167 48.0049C96.4606 48.2882 96.3479 48.5933 96.2612 48.9072C96.3436 48.9551 96.4303 49.0031 96.517 49.0554C96.5213 49.0336 96.5257 49.0162 96.53 48.9944L96.5257 48.9987Z" fill="#F28F8F"/>
<path d="M97.306 48.9377C97.3841 48.7241 97.4751 48.5105 97.5878 48.3057C97.6355 48.2185 97.6875 48.1357 97.7395 48.0528C97.7915 47.9744 97.8739 47.8959 97.8912 47.7957C97.8999 47.7564 97.8436 47.691 97.8002 47.7128C97.6051 47.8175 97.4664 48.0616 97.3537 48.2446C97.2323 48.4408 97.137 48.6457 97.0503 48.8593C96.9983 48.9944 96.9506 49.1339 96.9072 49.2734C96.9853 49.317 97.0676 49.3606 97.15 49.4041C97.1977 49.2472 97.2497 49.0903 97.306 48.9334V48.9377Z" fill="#F28F8F"/>
<path d="M101.125 51.3221C101.337 50.0579 102.104 49.452 102.104 49.452C102.104 49.452 103.738 50.1408 104.436 50.7728C105.134 51.4092 105.672 52.7954 105.238 53.2444C104.237 53.2444 102.893 52.2549 101.129 51.3221H101.125Z" fill="#FFC4C3"/>
<path opacity="0.3" d="M101.125 51.3221C101.329 51.431 101.528 51.54 101.723 51.649C101.888 51.0518 102.1 50.1495 102.1 49.452C102.1 49.452 101.337 50.0579 101.121 51.3221H101.125Z" fill="white"/>
<path d="M104.129 35.2024C105.273 37.0811 107.033 40.4768 107.051 40.9171C107.168 43.393 107.025 45.9779 107.025 48.6544C107.025 51.3308 107.003 53.2837 108.169 55.0578C109.227 56.6619 111.16 57.1022 111.442 55.3499C111.685 53.8503 111.832 50.799 112.049 48.2926C112.265 45.7861 112.838 42.1507 112.981 40.1194C113.124 38.088 111.806 36.096 110.909 33.4718C110.133 31.1877 109.474 28.3064 108.26 27.0858C107.046 25.8609 102.438 23.5681 100.765 22.6788L104.129 35.2024Z" fill="#FFA8A7"/>
<path d="M112.855 40.2806C112.712 40.2893 112.569 40.2893 112.421 40.2806C112.114 40.2632 111.828 40.1847 111.533 40.1193C111.459 40.1019 111.476 40.2109 111.52 40.237C111.797 40.3852 112.144 40.4332 112.452 40.455C112.612 40.4637 112.777 40.4637 112.937 40.4462C112.942 40.4462 112.946 40.4462 112.95 40.4462C112.955 40.3852 112.959 40.3242 112.963 40.2675C112.924 40.2719 112.885 40.2762 112.851 40.2806H112.855Z" fill="#F28F8F"/>
<path d="M111.138 38.4629C111.09 38.489 111.151 38.5762 111.194 38.5632C111.546 38.4803 111.905 38.4411 112.265 38.5021C112.421 38.5283 112.577 38.5762 112.725 38.6373C112.772 38.6547 112.816 38.6808 112.863 38.7026C112.846 38.6198 112.829 38.5414 112.807 38.4585C112.647 38.3931 112.482 38.3452 112.313 38.319C111.927 38.258 111.493 38.2798 111.138 38.4585V38.4629Z" fill="#F28F8F"/>
<path d="M111.823 39.1167C111.541 39.108 111.255 39.1254 110.978 39.1865C110.744 39.2388 110.401 39.2998 110.245 39.5047C110.237 39.5134 110.245 39.5396 110.254 39.5396C110.384 39.5483 110.514 39.5003 110.64 39.4698C110.774 39.4393 110.909 39.4044 111.047 39.387C111.303 39.3478 111.563 39.3347 111.819 39.3521C112.07 39.3696 112.322 39.4088 112.564 39.4785C112.712 39.5221 112.851 39.5788 112.989 39.6398C112.989 39.5439 112.981 39.4437 112.972 39.3478C112.868 39.3085 112.764 39.278 112.66 39.2475C112.387 39.1734 112.105 39.1298 111.823 39.1211V39.1167Z" fill="#F28F8F"/>
<path d="M111.906 49.7223C111.806 49.6918 111.706 49.6613 111.607 49.6351C111.403 49.5785 111.195 49.5305 110.987 49.4913C110.944 49.4826 110.892 49.5087 110.887 49.5567C110.887 49.609 110.935 49.6439 110.978 49.6526C111.169 49.6874 111.36 49.731 111.55 49.7833C111.641 49.8095 111.733 49.8356 111.828 49.8618C111.863 49.8705 111.893 49.8836 111.928 49.8923C111.928 49.8356 111.936 49.7833 111.941 49.7267C111.932 49.7267 111.919 49.718 111.91 49.718L111.906 49.7223Z" fill="#F28F8F"/>
<path d="M111.281 49.038C111.494 49.099 111.702 49.1774 111.906 49.2646C111.927 49.2733 111.949 49.2864 111.971 49.2951C111.975 49.221 111.984 49.1469 111.988 49.0728C111.979 49.0728 111.975 49.0641 111.966 49.0641C111.75 48.9769 111.529 48.9028 111.303 48.8462C111.078 48.7895 110.857 48.7459 110.627 48.7154C110.393 48.6849 110.128 48.65 109.899 48.7023C109.855 48.711 109.877 48.7851 109.912 48.7895C110.15 48.8374 110.393 48.8505 110.631 48.8897C110.848 48.929 111.069 48.9769 111.281 49.038Z" fill="#F28F8F"/>
<path d="M110.93 48.4451C111.225 48.5105 111.52 48.5933 111.806 48.6936C111.875 48.7197 111.945 48.7459 112.01 48.772C112.014 48.711 112.018 48.65 112.023 48.589C111.975 48.5715 111.927 48.5497 111.88 48.5366C111.563 48.432 111.247 48.3623 110.917 48.3187C110.831 48.3056 110.865 48.432 110.926 48.4451H110.93Z" fill="#F28F8F"/>
<path d="M111.789 51.7841C110.692 50.7162 109.535 51.0998 109.535 51.0998C109.535 51.0998 109.3 52.5513 109.383 53.8242C109.461 55.097 110.297 55.7203 110.939 55.8293C111.581 55.9383 111.667 54.6829 111.793 51.7841H111.789Z" fill="#FFC4C3"/>
<path opacity="0.3" d="M111.767 52.2506C111.776 52.0981 111.78 51.9455 111.789 51.7799C110.692 50.7119 109.535 51.0955 109.535 51.0955C109.76 51.4878 110.974 52.1765 111.767 52.2506Z" fill="white"/>
<path d="M108.88 27.4215C108.373 26.7241 107.61 26.3143 106.86 25.9307C106.44 25.7171 106.019 25.4992 105.629 25.2333C105.607 25.2158 105.599 25.2681 105.612 25.2769C106.205 25.8043 106.916 26.1705 107.571 26.6151C107.883 26.8243 108.182 27.0641 108.434 27.3518C108.733 27.6918 108.962 28.0972 109.144 28.5113C109.344 28.9646 109.509 29.431 109.686 29.8931C109.699 29.928 109.73 29.9062 109.725 29.8756C109.621 29.0213 109.387 28.1233 108.876 27.4171L108.88 27.4215Z" fill="#F28F8F"/>
<path d="M122.409 76.7396C113.64 80.7064 104.866 84.6775 96.0966 88.6442C90.8384 77.2279 87.1928 65.6851 84.813 53.3359C93.5824 49.3692 102.356 45.3981 111.125 41.4314C113.505 53.7806 117.155 65.3233 122.409 76.7396Z" fill="#FAFAFA" stroke="#9C0D38" stroke-miterlimit="10"/>
<path d="M101.385 63.4881C97.7178 65.1489 95.8841 65.9771 92.2212 67.6336C90.9424 63.3748 90.3876 61.2083 89.4556 56.8188C93.1228 55.158 94.9565 54.3298 98.6237 52.6733C99.5557 57.0629 100.111 59.2337 101.389 63.4881H101.385Z" stroke="#37474F" stroke-miterlimit="10"/>
<path d="M106.786 78.2261C103.119 79.8869 101.285 80.7151 97.6181 82.3715C95.8625 78.3525 95.0649 76.295 93.6431 72.1016C97.3103 70.4408 99.144 69.6126 102.807 67.9562C104.229 72.1496 105.026 74.207 106.782 78.2261H106.786Z" stroke="#37474F" stroke-miterlimit="10"/>
<path d="M108.347 51.9889C105.785 53.1484 104.502 53.7282 101.935 54.8877C101.688 54.9967 101.437 54.8528 101.368 54.5608C101.363 54.5346 101.359 54.5259 101.355 54.4997C101.285 54.2077 101.433 53.8808 101.675 53.7718C104.237 52.6123 105.52 52.0325 108.087 50.873C108.334 50.764 108.585 50.9079 108.654 51.2C108.659 51.2261 108.663 51.2348 108.667 51.261C108.737 51.553 108.594 51.88 108.347 51.9889Z" fill="#E0E0E0"/>
<path d="M111.633 53.6105C108.035 55.2408 106.232 56.0516 102.634 57.6819C102.387 57.7908 102.131 57.647 102.053 57.3593C102.048 57.3331 102.044 57.3244 102.035 57.2983C101.962 57.0106 102.1 56.6836 102.347 56.5747C105.945 54.9444 107.749 54.1336 111.347 52.5033C111.594 52.3943 111.849 52.5382 111.923 52.8259C111.927 52.852 111.932 52.8608 111.94 52.8869C112.014 53.1746 111.875 53.5015 111.633 53.6105Z" fill="#E0E0E0"/>
<path d="M112.148 55.5242C108.55 57.1545 106.747 57.9652 103.149 59.5955C102.902 59.7045 102.642 59.565 102.564 59.2773C102.555 59.2512 102.555 59.2424 102.547 59.2163C102.469 58.9286 102.603 58.606 102.85 58.4927C106.448 56.8624 108.251 56.0516 111.849 54.4213C112.096 54.3124 112.356 54.4562 112.434 54.7396C112.443 54.7657 112.443 54.7744 112.452 54.8006C112.53 55.0883 112.395 55.4108 112.153 55.5198L112.148 55.5242Z" fill="#E0E0E0"/>
<path d="M113.063 67.5159C110.501 68.6754 109.218 69.2552 106.652 70.4147C106.405 70.5237 106.123 70.3929 106.024 70.1139C106.015 70.0921 106.011 70.0791 106.002 70.0573C105.902 69.7783 106.019 69.4644 106.262 69.3555C108.824 68.196 110.107 67.6162 112.673 66.4567C112.92 66.3477 113.198 66.4828 113.302 66.7575C113.31 66.7793 113.315 66.7923 113.323 66.8141C113.423 67.0931 113.31 67.407 113.063 67.5159Z" fill="#E0E0E0"/>
<path d="M116.674 68.9937C113.076 70.624 111.273 71.4347 107.675 73.065C107.428 73.174 107.142 73.0432 107.034 72.7686C107.025 72.7468 107.021 72.7337 107.012 72.7119C106.904 72.4373 107.016 72.1235 107.263 72.0145C110.861 70.3842 112.665 69.5734 116.262 67.9431C116.51 67.8342 116.791 67.9649 116.9 68.2396C116.908 68.2614 116.913 68.2744 116.921 68.2962C117.03 68.5708 116.921 68.8803 116.674 68.9937Z" fill="#E0E0E0"/>
<path d="M117.407 70.8026C113.809 72.4329 112.006 73.2437 108.408 74.874C108.161 74.983 107.875 74.8566 107.762 74.5819C107.753 74.5601 107.749 74.5471 107.74 74.5253C107.627 74.255 107.74 73.9412 107.983 73.8322C111.581 72.2019 113.384 71.3911 116.982 69.7608C117.229 69.6519 117.515 69.7826 117.628 70.0529C117.637 70.0747 117.641 70.0878 117.65 70.1096C117.762 70.3798 117.65 70.6893 117.407 70.8026Z" fill="#E0E0E0"/>
<path d="M97.4967 63.8413C95.3769 62.5248 94.3366 61.8535 92.2905 60.5066C92.7977 59.4779 93.0491 58.9635 93.565 57.9304C94.6227 58.6409 95.1559 58.9984 96.2352 59.7002C97.41 55.9209 98.0342 54.016 99.3693 50.1757C100.223 50.5244 100.657 50.6987 101.519 51.0431C100.076 55.267 98.7321 59.5476 97.4967 63.8369V63.8413Z" fill="#9C0D38"/>
<path d="M108.273 24.4268C110.87 25.5776 111.178 27.0117 111.633 28.8687C112.092 30.7256 113.848 34.6793 114.537 36.4665C115.226 38.2537 115.378 38.7114 114.689 41.1307C114 43.5499 112.049 48.2882 112.049 48.2882C112.049 48.2882 106.206 29.6925 105.824 27.7876C105.443 25.8827 105.672 23.7337 108.269 24.4268H108.273Z" fill="#FFA8A7"/>
<path d="M114.108 39.884C114.108 39.884 114.099 39.9015 114.104 39.9146C114.186 39.9407 114.312 39.884 114.394 39.871C114.498 39.8492 114.602 39.8317 114.71 39.8143C114.81 39.7969 114.918 39.7925 115.023 39.7838C115.036 39.714 115.049 39.6487 115.057 39.5833C114.793 39.6138 114.528 39.6748 114.281 39.7663C114.216 39.7925 114.143 39.823 114.108 39.884ZM114.095 38.6199C114.359 38.5284 114.619 38.4412 114.897 38.4063C114.971 38.3976 115.04 38.3932 115.114 38.3889C115.105 38.3191 115.096 38.245 115.083 38.1753C115.005 38.1797 114.927 38.1884 114.849 38.1971C114.559 38.2363 114.26 38.3191 114.008 38.4717C113.926 38.524 114.017 38.6417 114.095 38.6156V38.6199ZM114.966 38.8989C114.801 38.9033 114.632 38.925 114.472 38.9512C114.147 39.0079 113.8 39.1038 113.514 39.2781C113.44 39.3217 113.536 39.4176 113.601 39.3958C113.887 39.2956 114.16 39.1953 114.459 39.1386C114.602 39.1125 114.745 39.095 114.888 39.0863C114.962 39.0863 115.044 39.0863 115.122 39.0863C115.127 39.0209 115.131 38.9599 115.131 38.8945C115.075 38.8945 115.018 38.8945 114.966 38.8945V38.8989Z" fill="#F28F8F"/>
<path d="M112.413 36.0436C111.659 34.6269 110.302 31.5495 109.648 29.5966L107.311 28.8687L106.54 30.3682C108.187 35.9826 112.053 48.2925 112.053 48.2925C112.053 48.2925 112.344 47.5907 112.738 46.5882C112.738 46.5882 113.259 42.2378 113.497 40.2937C113.731 38.3452 113.168 37.4647 112.413 36.048V36.0436Z" fill="#F28F8F"/>
<path d="M104.129 35.2024C105.273 37.0811 107.033 40.4768 107.051 40.9171C107.168 43.393 107.025 45.9779 107.025 48.6544C107.025 51.3308 107.003 53.2837 108.169 55.0578C109.227 56.6619 111.16 57.1022 111.442 55.3499C111.685 53.8503 111.832 50.799 112.049 48.2926C112.265 45.7861 112.838 42.1507 112.981 40.1194C113.124 38.088 111.806 36.096 110.909 33.4718C110.133 31.1877 109.474 28.3064 108.26 27.0858C107.046 25.8609 102.438 23.5681 100.765 22.6788L104.129 35.2024Z" fill="#FFA8A7"/>
<path d="M112.855 40.2806C112.712 40.2893 112.569 40.2893 112.421 40.2806C112.114 40.2632 111.828 40.1847 111.533 40.1193C111.459 40.1019 111.476 40.2109 111.52 40.237C111.797 40.3852 112.144 40.4332 112.452 40.455C112.612 40.4637 112.777 40.4637 112.937 40.4462C112.942 40.4462 112.946 40.4462 112.95 40.4462C112.955 40.3852 112.959 40.3242 112.963 40.2675C112.924 40.2719 112.885 40.2762 112.851 40.2806H112.855Z" fill="#F28F8F"/>
<path d="M111.138 38.4629C111.09 38.489 111.151 38.5762 111.194 38.5632C111.546 38.4803 111.905 38.4411 112.265 38.5021C112.421 38.5283 112.577 38.5762 112.725 38.6373C112.772 38.6547 112.816 38.6808 112.863 38.7026C112.846 38.6198 112.829 38.5414 112.807 38.4585C112.647 38.3931 112.482 38.3452 112.313 38.319C111.927 38.258 111.493 38.2798 111.138 38.4585V38.4629Z" fill="#F28F8F"/>
<path d="M111.823 39.1167C111.541 39.108 111.255 39.1254 110.978 39.1865C110.744 39.2388 110.401 39.2998 110.245 39.5047C110.237 39.5134 110.245 39.5396 110.254 39.5396C110.384 39.5483 110.514 39.5003 110.64 39.4698C110.774 39.4393 110.909 39.4044 111.047 39.387C111.303 39.3478 111.563 39.3347 111.819 39.3521C112.07 39.3696 112.322 39.4088 112.564 39.4785C112.712 39.5221 112.851 39.5788 112.989 39.6398C112.989 39.5439 112.981 39.4437 112.972 39.3478C112.868 39.3085 112.764 39.278 112.66 39.2475C112.387 39.1734 112.105 39.1298 111.823 39.1211V39.1167Z" fill="#F28F8F"/>
<path d="M111.906 49.7223C111.806 49.6918 111.706 49.6613 111.607 49.6351C111.403 49.5785 111.195 49.5305 110.987 49.4913C110.944 49.4826 110.892 49.5087 110.887 49.5567C110.887 49.609 110.935 49.6439 110.978 49.6526C111.169 49.6874 111.36 49.731 111.55 49.7833C111.641 49.8095 111.733 49.8356 111.828 49.8618C111.863 49.8705 111.893 49.8836 111.928 49.8923C111.928 49.8356 111.936 49.7833 111.941 49.7267C111.932 49.7267 111.919 49.718 111.91 49.718L111.906 49.7223Z" fill="#F28F8F"/>
<path d="M111.281 49.038C111.494 49.099 111.702 49.1774 111.906 49.2646C111.927 49.2733 111.949 49.2864 111.971 49.2951C111.975 49.221 111.984 49.1469 111.988 49.0728C111.979 49.0728 111.975 49.0641 111.966 49.0641C111.75 48.9769 111.529 48.9028 111.303 48.8462C111.078 48.7895 110.857 48.7459 110.627 48.7154C110.393 48.6849 110.128 48.65 109.899 48.7023C109.855 48.711 109.877 48.7851 109.912 48.7895C110.15 48.8374 110.393 48.8505 110.631 48.8897C110.848 48.929 111.069 48.9769 111.281 49.038Z" fill="#F28F8F"/>
<path d="M110.93 48.4451C111.225 48.5105 111.52 48.5933 111.806 48.6936C111.875 48.7197 111.945 48.7459 112.01 48.772C112.014 48.711 112.018 48.65 112.023 48.589C111.975 48.5715 111.927 48.5497 111.88 48.5366C111.563 48.432 111.247 48.3623 110.917 48.3187C110.831 48.3056 110.865 48.432 110.926 48.4451H110.93Z" fill="#F28F8F"/>
<path d="M111.789 51.7841C110.692 50.7162 109.535 51.0998 109.535 51.0998C109.535 51.0998 109.3 52.5513 109.383 53.8242C109.461 55.097 110.297 55.7203 110.939 55.8293C111.581 55.9383 111.667 54.6829 111.793 51.7841H111.789Z" fill="#FFC4C3"/>
<path opacity="0.3" d="M111.767 52.2506C111.776 52.0981 111.78 51.9455 111.789 51.7799C110.692 50.7119 109.535 51.0955 109.535 51.0955C109.76 51.4878 110.974 52.1765 111.767 52.2506Z" fill="white"/>
<path d="M108.88 27.4215C108.373 26.7241 107.61 26.3143 106.86 25.9307C106.44 25.7171 106.019 25.4992 105.629 25.2333C105.607 25.2158 105.599 25.2681 105.612 25.2769C106.205 25.8043 106.916 26.1705 107.571 26.6151C107.883 26.8243 108.182 27.0641 108.434 27.3518C108.733 27.6918 108.962 28.0972 109.144 28.5113C109.344 28.9646 109.509 29.431 109.686 29.8931C109.699 29.928 109.73 29.9062 109.725 29.8756C109.621 29.0213 109.387 28.1233 108.876 27.4171L108.88 27.4215Z" fill="#F28F8F"/>
<path d="M179.425 30.3768C179.425 30.3768 178.332 32.7264 179.572 34.7795L181.657 34.9625C181.657 34.9625 180.656 33.8597 181.063 31.0394L179.42 30.3768H179.425Z" fill="#455A64"/>
<path d="M43.0421 7.03857C43.0421 7.03857 43.9307 9.47528 42.5176 11.4107H40.4238C40.4238 11.4107 41.5162 10.4038 41.3515 7.5573L43.0464 7.03857H43.0421Z" fill="#455A64"/>
<path d="M8.58887 29.8102C8.58887 29.8102 10.3748 31.6802 12.7286 31.253L13.652 29.3612C13.652 29.3612 12.2691 29.9061 9.79829 28.5068L8.5932 29.8102H8.58887Z" fill="#455A64"/>
<path d="M129.028 31.8197C129.028 31.8197 130.194 34.13 132.569 34.4134L134 32.8746C134 32.8746 132.517 32.988 130.562 30.9261L129.032 31.8197H129.028Z" fill="#455A64"/>
<path d="M108.091 6.18853C108.091 6.18853 109.257 8.49882 111.632 8.78216L113.063 7.24341C113.063 7.24341 111.58 7.35675 109.625 5.29492L108.095 6.18853H108.091Z" fill="#455A64"/>
<path d="M191.263 65.2797C189.984 66.4131 187.895 67.25 186.183 66.8316C184.869 66.509 183.534 65.0836 184.683 63.8413C185.129 63.353 186.954 62.4943 187.531 63.1482C187.929 63.6059 187.513 64.1856 187.093 64.4646C185.862 65.2972 183.963 64.4777 183.408 63.2048C182.576 61.2999 184.466 59.6435 186 58.9025C186.104 58.8545 185.987 58.6758 185.896 58.7107C183.152 59.6958 181.362 63.523 184.839 64.8743C185.775 65.2405 186.976 65.2449 187.713 64.4515C188.129 64.0025 188.315 63.3487 187.799 62.9084C186.971 62.2066 185.251 62.83 184.557 63.4359C183.751 64.1464 183.729 65.2187 184.418 66.0295C186.178 68.1088 189.728 67.0408 191.363 65.3974C191.41 65.3495 191.324 65.2231 191.263 65.2754V65.2797Z" fill="#BA68C8"/>
<path d="M152.518 20.9003C151.795 22.5044 152.098 26.5365 154.647 26.2968C156.008 26.1703 157.469 24.1826 156.303 23.0188C156.238 22.9534 156.134 22.9795 156.073 23.0362C153.047 25.9175 157.595 31.3358 160.811 28.2801C160.911 28.1842 160.716 28.1276 160.642 28.1799C159.194 29.2391 157.504 29.0037 156.355 27.6481C155.882 27.0901 155.54 26.397 155.436 25.6691C155.358 25.1242 155.41 23.8295 156.008 23.5288C156.285 23.3893 156.012 23.3152 156.233 23.4939C156.368 23.6072 156.39 23.8426 156.403 24.0126C156.429 24.4093 156.242 24.8278 156.012 25.146C155.505 25.8478 154.612 26.227 153.823 25.7606C152.245 24.8278 152.293 22.4477 152.744 20.9177C152.774 20.8087 152.562 20.8174 152.527 20.8959L152.518 20.9003Z" fill="#BA68C8"/>
<path d="M152.558 8.80396C152.558 8.80396 150 9.12217 148.439 7.30445L148.912 5.25134C148.912 5.25134 149.645 6.55034 152.441 7.02983L152.562 8.80396H152.558Z" fill="#BA68C8"/>
<path d="M21.7275 8.80396C21.7275 8.80396 19.1699 9.12217 17.6094 7.30445L18.0775 5.25134C18.0775 5.25134 18.8101 6.55034 21.6061 7.02983L21.7275 8.80396Z" fill="#BA68C8"/>
<path d="M195.906 8.88674C196.681 11.2755 193.348 15.4733 190.877 13.5204C189.503 12.435 189.338 9.43598 191.371 9.01751C191.488 8.99571 191.597 9.08725 191.644 9.18315C192.503 11.0052 192.1 13.0889 189.798 13.2589C187.756 13.4071 185.935 11.9206 185.394 9.99829C185.363 9.88496 185.576 9.8806 185.615 9.96778C186.33 11.5632 187.708 12.9145 189.559 12.8447C190.214 12.823 190.894 12.605 191.319 12.0776C191.549 11.7899 191.675 11.4411 191.709 11.075C191.735 10.7698 191.675 9.70188 191.393 9.52752C190.829 9.17443 190.314 10.578 190.27 10.9704C190.188 11.707 190.405 12.6137 190.964 13.1324C191.891 13.9912 193.166 13.4463 194.003 12.7445C195.13 11.8029 195.91 10.408 195.632 8.90417C195.606 8.76904 195.871 8.78212 195.906 8.88674Z" fill="#BA68C8"/>
<path d="M30.5753 35.6251C29.1318 35.8605 27.4369 36.7977 26.7823 38.1708C26.2795 39.2257 26.4919 40.8909 27.9354 40.8037C28.4989 40.7688 30.0638 40.0191 29.9424 39.278C29.86 38.7637 29.2488 38.7244 28.8327 38.8508C27.6102 39.2214 27.1204 40.9345 27.6536 41.9981C28.4555 43.5935 30.5796 43.2317 31.9104 42.6127C31.9971 42.5735 32.0535 42.7435 31.9798 42.7871C29.834 44.0817 26.3271 43.1881 27.3328 40.1324C27.6016 39.3085 28.2561 38.5021 29.1795 38.4411C29.704 38.4062 30.2372 38.6416 30.2458 39.2257C30.2588 40.1629 28.9064 40.9693 28.1304 41.1045C27.2201 41.257 26.5049 40.686 26.3401 39.7837C25.924 37.4734 28.5639 35.6862 30.5449 35.4944C30.6013 35.49 30.6403 35.6164 30.5709 35.6251H30.5753Z" fill="#BA68C8"/>
<path d="M13.2704 59.3732C15.2818 59.055 18.3899 61.3827 17.4275 63.584C16.6083 65.4541 13.6736 66.5264 13.0494 64.0069C13.0364 63.9546 13.0494 63.8805 13.0927 63.8456C14.7269 62.5161 16.3612 64.3905 16.6516 66.0077C17.1024 68.5141 14.8613 69.5559 12.6982 69.168C12.6289 69.1549 12.5812 68.9893 12.6722 68.9936C14.3065 69.0241 16.4262 68.7277 16.4305 66.6528C16.4305 65.5456 15.737 64.0417 14.5752 63.741C14.2848 63.6669 13.899 63.6407 13.6346 63.8064C13.0537 64.1725 13.4785 64.7915 14.0247 65.0487C14.896 65.4584 15.9754 64.8569 16.5909 64.2379C18.6976 62.1238 15.3902 59.6565 13.3008 59.5171C13.2358 59.5171 13.1881 59.3776 13.2661 59.3689L13.2704 59.3732Z" fill="#BA68C8"/>
<path d="M51.5165 28.3193C51.5165 28.3193 54.0567 27.8747 55.019 25.6778L53.9743 23.8513C53.9743 23.8513 53.6492 25.3072 51.1177 26.5844L51.5165 28.3193Z" fill="#BA68C8"/>
<path d="M193.79 44.9273C193.79 44.9273 196.044 46.1827 198.168 45.0799L198.493 43.0006C198.493 43.0006 197.332 43.9334 194.562 43.3275L193.79 44.9317V44.9273Z" fill="#BA68C8"/>
<g opacity="0.4">
<path d="M191.263 65.2797C189.984 66.4131 187.895 67.25 186.183 66.8316C184.869 66.509 183.534 65.0836 184.683 63.8413C185.129 63.353 186.954 62.4943 187.531 63.1482C187.929 63.6059 187.513 64.1856 187.093 64.4646C185.862 65.2972 183.963 64.4777 183.408 63.2048C182.576 61.2999 184.466 59.6435 186 58.9025C186.104 58.8545 185.987 58.6758 185.896 58.7107C183.152 59.6958 181.362 63.523 184.839 64.8743C185.775 65.2405 186.976 65.2449 187.713 64.4515C188.129 64.0025 188.315 63.3487 187.799 62.9084C186.971 62.2066 185.251 62.83 184.557 63.4359C183.751 64.1464 183.729 65.2187 184.418 66.0295C186.178 68.1088 189.728 67.0408 191.363 65.3974C191.41 65.3495 191.324 65.2231 191.263 65.2754V65.2797Z" fill="white"/>
<path d="M152.518 20.9003C151.795 22.5044 152.098 26.5365 154.647 26.2968C156.008 26.1703 157.469 24.1826 156.303 23.0188C156.238 22.9534 156.134 22.9795 156.073 23.0362C153.047 25.9175 157.595 31.3358 160.811 28.2801C160.911 28.1842 160.716 28.1276 160.642 28.1799C159.194 29.2391 157.504 29.0037 156.355 27.6481C155.882 27.0901 155.54 26.397 155.436 25.6691C155.358 25.1242 155.41 23.8295 156.008 23.5288C156.285 23.3893 156.012 23.3152 156.233 23.4939C156.368 23.6072 156.39 23.8426 156.403 24.0126C156.429 24.4093 156.242 24.8278 156.012 25.146C155.505 25.8478 154.612 26.227 153.823 25.7606C152.245 24.8278 152.293 22.4477 152.744 20.9177C152.774 20.8087 152.562 20.8174 152.527 20.8959L152.518 20.9003Z" fill="white"/>
<path d="M152.558 8.80396C152.558 8.80396 150 9.12217 148.439 7.30445L148.912 5.25134C148.912 5.25134 149.645 6.55034 152.441 7.02983L152.562 8.80396H152.558Z" fill="white"/>
<path d="M21.7275 8.80396C21.7275 8.80396 19.1699 9.12217 17.6094 7.30445L18.0775 5.25134C18.0775 5.25134 18.8101 6.55034 21.6061 7.02983L21.7275 8.80396Z" fill="white"/>
<path d="M195.906 8.88674C196.681 11.2755 193.348 15.4733 190.877 13.5204C189.503 12.435 189.338 9.43598 191.371 9.01751C191.488 8.99571 191.597 9.08725 191.644 9.18315C192.503 11.0052 192.1 13.0889 189.798 13.2589C187.756 13.4071 185.935 11.9206 185.394 9.99829C185.363 9.88496 185.576 9.8806 185.615 9.96778C186.33 11.5632 187.708 12.9145 189.559 12.8447C190.214 12.823 190.894 12.605 191.319 12.0776C191.549 11.7899 191.675 11.4411 191.709 11.075C191.735 10.7698 191.675 9.70188 191.393 9.52752C190.829 9.17443 190.314 10.578 190.27 10.9704C190.188 11.707 190.405 12.6137 190.964 13.1324C191.891 13.9912 193.166 13.4463 194.003 12.7445C195.13 11.8029 195.91 10.408 195.632 8.90417C195.606 8.76904 195.871 8.78212 195.906 8.88674Z" fill="white"/>
<path d="M30.5753 35.6251C29.1318 35.8605 27.4369 36.7977 26.7823 38.1708C26.2795 39.2257 26.4919 40.8909 27.9354 40.8037C28.4989 40.7688 30.0638 40.0191 29.9424 39.278C29.86 38.7637 29.2488 38.7244 28.8327 38.8508C27.6102 39.2214 27.1204 40.9345 27.6536 41.9981C28.4555 43.5935 30.5796 43.2317 31.9104 42.6127C31.9971 42.5735 32.0535 42.7435 31.9798 42.7871C29.834 44.0817 26.3271 43.1881 27.3328 40.1324C27.6016 39.3085 28.2561 38.5021 29.1795 38.4411C29.704 38.4062 30.2372 38.6416 30.2458 39.2257C30.2588 40.1629 28.9064 40.9693 28.1304 41.1045C27.2201 41.257 26.5049 40.686 26.3401 39.7837C25.924 37.4734 28.5639 35.6862 30.5449 35.4944C30.6013 35.49 30.6403 35.6164 30.5709 35.6251H30.5753Z" fill="white"/>
<path d="M13.2704 59.3732C15.2818 59.055 18.3899 61.3827 17.4275 63.584C16.6083 65.4541 13.6736 66.5264 13.0494 64.0069C13.0364 63.9546 13.0494 63.8805 13.0927 63.8456C14.7269 62.5161 16.3612 64.3905 16.6516 66.0077C17.1024 68.5141 14.8613 69.5559 12.6982 69.168C12.6289 69.1549 12.5812 68.9893 12.6722 68.9936C14.3065 69.0241 16.4262 68.7277 16.4305 66.6528C16.4305 65.5456 15.737 64.0417 14.5752 63.741C14.2848 63.6669 13.899 63.6407 13.6346 63.8064C13.0537 64.1725 13.4785 64.7915 14.0247 65.0487C14.896 65.4584 15.9754 64.8569 16.5909 64.2379C18.6976 62.1238 15.3902 59.6565 13.3008 59.5171C13.2358 59.5171 13.1881 59.3776 13.2661 59.3689L13.2704 59.3732Z" fill="white"/>
<path d="M51.5165 28.3193C51.5165 28.3193 54.0567 27.8747 55.019 25.6778L53.9743 23.8513C53.9743 23.8513 53.6492 25.3072 51.1177 26.5844L51.5165 28.3193Z" fill="white"/>
<path d="M193.79 44.9273C193.79 44.9273 196.044 46.1827 198.168 45.0799L198.493 43.0006C198.493 43.0006 197.332 43.9334 194.562 43.3275L193.79 44.9317V44.9273Z" fill="white"/>
</g>
</g>
<defs>
<clipPath id="clip0_176_59">
<rect width="206" height="196" fill="white" transform="translate(0.5 0.5)"/>
</clipPath>
</defs>
</svg>
